<?xml version="1.0" standalone="no"?>
<!DOCTYPE svg PUBLIC "-//W3C//DTD SVG 1.1//EN" "http://www.w3.org/Graphics/SVG/1.1/DTD/svg11.dtd" >
<svg xmlns="http://www.w3.org/2000/svg">
<metadata>Generated by IcoMoon</metadata>
<defs>
<font id="seosight" horiz-adv-x="1024">
<font-face units-per-em="1024" ascent="960" descent="-64" />
<missing-glyph horiz-adv-x="1024" />
<glyph unicode="&#x20;" horiz-adv-x="512" d="" />
<glyph unicode="&#xe900;" glyph-name="loupe-0" d="M907.972 842.259c-74.815 74.815-174.285 116.021-280.093 116.021s-205.281-41.206-280.097-116.021c-134.247-134.242-151.736-341.635-52.604-495.025l-271.7-271.695c-31.304-31.299-31.304-82.228 0-113.531l0.775-0.775c15.163-15.157 35.32-23.512 56.763-23.512s41.601 8.354 56.768 23.517l270.869 270.874c64.413-42.974 140.043-66.059 219.229-66.059 105.808 0 205.278 41.201 280.093 116.021 74.82 74.815 116.026 174.29 116.026 280.098s-41.209 205.273-116.030 280.088zM870.752 319.289c-64.87-64.87-151.125-100.596-242.871-100.596s-178.001 35.726-242.871 100.596c-133.921 133.921-133.921 351.828 0 485.749 64.87 64.87 151.125 100.596 242.871 100.596s178.001-35.726 242.871-100.596 100.601-151.127 100.601-242.871-35.731-178.003-100.601-242.878zM372.668 535.838c-14.535 0-26.323 11.783-26.323 26.323 0 155.238 126.298 281.535 281.535 281.535 14.54 0 26.323-11.783 26.323-26.323s-11.783-26.323-26.323-26.323c-126.208 0-228.888-102.681-228.888-228.888-0.002-14.537-11.789-26.324-26.324-26.324z" />
<glyph unicode="&#xe901;" glyph-name="arrow-back" d="M456.582 703.44v215.561c1.243 10.782-1.717 21.929-10.050 30.226-14.474 14.364-37.936 14.364-52.412 0l-365.044-400.277c-7.712-7.675-11.002-17.836-10.489-27.886-0.511-10.050 2.777-20.211 10.489-27.886l363.070-398.084c6.725-8.149 16.483-13.671 27.851-13.671 10.344 0 19.589 4.349 26.241 11.256 0.11 0.076 0.219 0.11 0.329 0.221 8.333 8.258 11.293 19.444 10.050 30.225 0 0 0.621 202.66 0.621 215.123 241.219 0 459.375-173.676 502.684-402.249 29.165 67.029 45.538 140.856 45.538 218.632 0.002 303.095-245.747 548.81-548.879 548.81zM493.787 411.345c-23.94 0-110.375-0.621-110.375-0.621v-196.556l-279.887 306.896 279.887 306.896v-197.69c0 0 91.335 0.95 110.375 0.366 258.103-8.004 437.335-301.924 438.505-439.418-78.87 101.238-286.099 220.127-438.505 220.127z" />
<glyph unicode="&#xe902;" glyph-name="arrow-to-bottom" d="M480.544 119.902c7.782-8.855 18.746-14.631 31.405-14.631 0.105 0 0.243 0.103 0.38 0.103 0.103 0 0.242-0.103 0.38-0.103 10.826 0 21.651 4.117 29.918 12.382l349.785 349.819c16.533 16.498 16.533 43.304 0 59.802-16.533 16.533-43.27 16.533-59.803 0l-278.359-278.396v668.856c0 23.38-18.921 42.266-42.301 42.266-23.381 0-42.301-18.885-42.301-42.266v-667.679l-278.326 277.22c-16.568 16.533-43.339 16.256-59.837-0.173-16.498-16.533-16.394-43.269 0.138-59.802l348.919-347.397zM862.495 20.567h-701.021c-23.381 0-42.301-18.816-42.301-42.266 0-23.278 18.919-42.301 42.301-42.301h701.056c23.381 0 42.301 19.023 42.301 42.301-0.035 23.45-18.954 42.266-42.336 42.266z" />
<glyph unicode="&#xe903;" glyph-name="hit-target" d="M1022.856 838.503c-2.327 5.615-7.807 9.278-13.885 9.278h-97.19v97.19c0 6.078-3.661 11.559-9.278 13.885-5.613 2.325-12.080 1.040-16.378-3.258l-112.219-112.219c-2.82-2.818-4.403-6.641-4.403-10.627v-105.995l-332.255-332.255c-5.869-5.869-5.869-15.384 0-21.254 2.934-2.936 6.781-4.403 10.627-4.403s7.693 1.467 10.627 4.403l20.803 20.803c1.054-3.26 1.633-6.681 1.633-10.176 0-18.232-14.833-33.065-33.065-33.065s-33.065 14.833-33.065 33.065c0 8.3-6.729 15.029-15.029 15.029s-15.029-6.729-15.029-15.029c0-34.806 28.317-63.123 63.123-63.123s63.123 28.317 63.123 63.123c0 11.641-3.198 22.927-9.144 32.724l24.536 24.536c12.1-16.55 18.676-36.475 18.676-57.26 0-53.591-43.599-97.19-97.19-97.19s-97.19 43.599-97.19 97.19 43.599 97.19 97.19 97.19c7.609 0 15.182-0.88 22.506-2.615 8.076-1.916 16.178 3.082 18.089 11.16 1.914 8.078-3.082 16.176-11.16 18.089-9.593 2.272-19.496 3.425-29.435 3.425-70.165 0-127.249-57.083-127.249-127.249s57.083-127.249 127.249-127.249 127.249 57.083 127.249 127.249c0 28.792-9.625 56.34-27.281 78.714l46.968 46.968c30.011-35.018 46.443-79.225 46.443-125.681 0-106.628-86.749-193.378-193.378-193.378s-193.378 86.749-193.378 193.378 86.749 193.378 193.378 193.378c33.319 0 66.165-8.609 94.984-24.893 7.226-4.084 16.396-1.535 20.48 5.691s1.535 16.396-5.691 20.478c-33.323 18.829-71.281 28.782-109.772 28.782-123.203 0-223.436-100.234-223.436-223.436s100.234-223.436 223.436-223.436 223.436 100.234 223.436 223.436c0 54.466-19.52 106.27-55.174 147.009l24.131 24.131c42.086-47.194 65.109-107.408 65.109-171.14 0-141.987-115.516-257.503-257.503-257.503s-257.503 115.516-257.503 257.503 115.516 257.503 257.503 257.503c48.336 0 95.442-13.464 136.224-38.94 7.042-4.399 16.312-2.254 20.708 4.783 4.397 7.040 2.254 16.312-4.783 20.708-45.563 28.464-98.176 43.507-152.149 43.507-158.562 0-287.562-129-287.562-287.562s129-287.562 287.562-287.562 287.562 129 287.562 287.562c0 71.762-26.127 139.541-73.872 192.436l46.805 46.805c60.168-65.434 93.196-150.017 93.196-239.241 0-195.027-158.666-353.691-353.691-353.691s-353.691 158.664-353.691 353.691 158.666 353.691 353.691 353.691c71.566 0 140.494-21.26 199.337-61.48 6.855-4.685 16.206-2.924 20.889 3.926 4.683 6.853 2.926 16.206-3.926 20.889-63.861 43.651-138.655 66.724-216.3 66.724-211.599 0-383.75-172.15-383.75-383.75s172.15-383.75 383.75-383.75 383.75 172.148 383.75 383.75c0 97.232-36.151 189.39-101.981 260.515l24.095 24.095c72.283-77.567 111.953-178.114 111.953-284.61 0-230.384-187.432-417.816-417.816-417.816s-417.816 187.432-417.816 417.816 187.432 417.816 417.816 417.816c89.858 0 175.469-28.085 247.584-81.221 6.683-4.926 16.091-3.499 21.015 3.184s3.499 16.091-3.184 21.015c-77.317 56.967-169.094 87.080-265.414 87.080-119.632 0-232.103-46.587-316.697-131.18-84.591-84.591-131.178-197.063-131.178-316.695s46.587-232.103 131.178-316.695c84.593-84.593 197.065-131.18 316.697-131.18s232.103 46.587 316.697 131.178c84.591 84.593 131.178 197.065 131.178 316.697 0 114.52-42.788 222.627-120.74 305.881l15.747 15.747h105.995c3.986 0 7.809 1.583 10.627 4.403l112.219 112.219c4.298 4.298 5.585 10.761 3.258 16.378zM890.527 735.562h-69.71l38.469 38.469c5.869 5.869 5.869 15.384 0 21.254s-15.386 5.869-21.254 0l-38.471-38.469v69.71l82.16 82.16v-75.934c0-8.3 6.729-15.029 15.029-15.029h75.936l-82.16-82.16z" />
<glyph unicode="&#xe904;" glyph-name="quotes" d="M736.188 546.491c25.936 36.335 74.958 75.451 141.696 108.015 17.344 8.462 9.52 34.692-9.626 32.27-140.225-17.737-231.112-79.15-280.744-170.479-18.46-33.968-30.057-70.122-36.233-107.030-4.072-24.334-5.148-42.597-5.148-63.69 0-94.257 76.41-170.667 170.667-170.667s170.667 76.41 170.667 170.667c0 94.257-77.629 170.72-166.838 170.72 4.706 12.922 5.837 16.574 15.559 30.194zM853.333 345.578c0-75.405-61.128-136.533-136.533-136.533s-136.533 61.128-136.533 136.533c0 19.368 0.975 35.916 4.68 58.056 5.586 33.381 16.038 65.966 32.559 96.365 44.356 81.62 121.37 117.677 152.332 128.11-25.986-20.185-46.709-41.162-61.432-61.788-29.513-41.348-32.416-84.21 8.394-84.21 75.405 0 136.533-61.128 136.533-136.533zM360.721 546.491c25.936 36.335 74.958 75.451 141.696 108.015 17.344 8.462 9.52 34.692-9.626 32.27-140.225-17.737-231.112-79.15-280.744-170.479-18.46-33.968-30.057-70.122-36.233-107.030-4.072-24.334-5.148-42.597-5.148-63.69 0-94.257 76.41-170.667 170.667-170.667s170.667 76.41 170.667 170.667c0 94.257-77.629 170.72-166.838 170.72 4.706 12.922 5.837 16.574 15.559 30.194zM477.867 345.578c0-75.405-61.128-136.533-136.533-136.533s-136.533 61.128-136.533 136.533c0 19.368 0.975 35.916 4.68 58.056 5.586 33.381 16.038 65.966 32.559 96.365 44.356 81.62 121.37 117.677 152.332 128.11-25.986-20.185-46.709-41.162-61.432-61.788-29.513-41.348-32.416-84.21 8.394-84.21 75.405 0 136.533-61.128 136.533-136.533z" />
<glyph unicode="&#xe905;" glyph-name="business-cash" d="M977.846 114.854c-2.976 127.403-47.115 252.050-128.129 361.335-62.063 83.717-143.613 153.116-229.759 196.71 1.75 2.601 2.771 5.734 2.771 9.105 0 9.024-7.314 16.34-16.34 16.34h-22.199l88.691 185.407c2.421 5.063 2.076 11.016-0.917 15.763-2.991 4.747-8.212 7.628-13.824 7.628h-292.28c-5.612 0-10.833-2.88-13.824-7.628s-3.338-10.7-0.915-15.763l88.689-185.407h-22.199c-9.024 0-16.34-7.316-16.34-16.34 0-3.37 1.022-6.503 2.771-9.105-86.147-43.594-167.696-112.993-229.757-196.71-81.014-109.285-125.152-233.932-128.129-361.335-26.835-7.815-46.156-32.47-46.156-61.675 0-35.465 28.855-64.32 64.32-64.32h895.362c35.465 0 64.318 28.855 64.318 64.32 0 29.206-19.321 53.86-46.154 61.675zM959.682 21.539h-895.362c-17.445 0-31.639 14.194-31.639 31.639 0 16.889 13.157 30.685 30.012 31.537h43.204c9.024 0 16.34 7.316 16.34 16.34s-7.316 16.34-16.34 16.34h-26.966c7.793 265.364 203.996 479.049 389.789 548.267h86.561c185.795-69.216 381.998-282.903 389.789-548.267h-26.966c-9.026 0-16.34-7.316-16.34-16.34s7.314-16.34 16.34-16.34h43.204c16.852-0.852 30.010-14.648 30.010-31.537 0.002-17.445-14.192-31.639-31.635-31.639zM465.343 830.887c9.024 0 16.34 7.316 16.34 16.34v27.234h150.528l-84.247-176.117h-71.926l-84.247 176.117h57.211v-27.234c0-9.024 7.316-16.34 16.34-16.34zM852.744 117.396h-130.723c-9.026 0-16.34-7.316-16.34-16.34s7.314-16.34 16.34-16.34h130.723c9.026 0 16.34 7.316 16.34 16.34s-7.316 16.34-16.34 16.34zM598.515 457.774c0-9.024 7.314-16.34 16.34-16.34s16.34 7.316 16.34 16.34c0 49.148-40.69 83.412-102.855 88.498v26.095c0 9.024-7.316 16.34-16.34 16.34s-16.34-7.316-16.34-16.34v-26.095c-62.166-5.085-102.853-39.348-102.853-88.498 0-63.793 53.939-78.12 102.853-86.596v-114.616c-35.265 3.634-70.172 19.563-70.172 55.653 0 9.024-7.316 16.34-16.34 16.34s-16.34-7.316-16.34-16.34c0-49.148 40.688-83.412 102.853-88.498v-26.095c0-9.024 7.316-16.34 16.34-16.34s16.34 7.316 16.34 16.34v26.095c62.166 5.085 102.855 39.348 102.855 88.498 0 63.817-53.932 78.157-102.855 86.637v114.575c35.265-3.636 70.175-19.563 70.175-55.653zM425.487 457.774c0 36.091 34.91 52.017 70.172 55.653v-108.982c-47.588 8.924-70.172 19.628-70.172 53.329zM598.515 312.215c0-36.091-34.91-52.017-70.175-55.653v109.023c47.588-8.928 70.175-19.646 70.175-53.37z" />
<glyph unicode="&#xe906;" glyph-name="business" d="M1006.092 941.175h-833.654c-95.083 0-172.437-77.354-172.437-172.437 0-6.633 0-639.662 0-639.662 0-96.083 79.313-174.25 175.396-174.25h537.684c9.889 0 17.908 8.019 17.908 17.908s-8.019 17.908-17.908 17.908h-537.684c-76.333 0-138.433 62.099-138.433 138.433v533.171c31.601-40.115 80.563-65.943 135.474-65.943h815.739v-181.288h-158.705c-61.745 0-111.982-50.233-111.982-111.982 0-61.745 50.233-111.978 111.982-111.978h158.705v-200.414h-201.757c-9.889 0-17.908-8.019-17.908-17.908s8.019-17.908 17.908-17.908h219.665c9.889 0 17.908 8.019 17.908 17.908l0.007 950.536c0 9.885-8.016 17.905-17.908 17.905zM988.176 226.873h-158.705c-41.999 0-76.165 34.166-76.165 76.165 0 41.995 34.166 76.161 76.165 76.161h158.705v-152.326zM988.183 632.117h-72.243v182.727c0 9.889-8.019 17.908-17.908 17.908h-162.631c-9.889 0-17.908-8.019-17.908-17.908s8.019-17.908 17.908-17.908h144.722v-66.226h-426.487c-9.889 0-17.908-8.019-17.908-17.908s8.019-17.908 17.908-17.908h426.487v-62.776h-707.686c-48.138 0-90.513 25.050-114.851 62.776h209.801c9.889 0 17.908 8.019 17.908 17.908s-8.019 17.908-17.908 17.908h-226.145c-3.51 12.081-5.426 24.832-5.426 38.027 0 9.667 1.024 19.094 2.941 28.199h619.032c9.889 0 17.908 8.019 17.908 17.908s-8.019 17.908-17.908 17.908h-605.998c22.991 43.152 68.435 72.605 120.646 72.605h815.746v-273.24zM391.003 730.711h-57.397c-9.889 0-17.908-8.019-17.908-17.908s8.019-17.908 17.908-17.908h57.4c9.889 0 17.908 8.019 17.908 17.908-0.004 9.889-8.019 17.908-17.912 17.908zM779.571 303.633c0-23.596 15.118-44.198 37.615-51.265 1.784-0.559 3.592-0.827 5.369-0.827 7.615 0 14.678 4.9 17.081 12.55 2.962 9.438-2.285 19.488-11.719 22.45-7.493 2.353-12.529 9.219-12.529 17.092 0 9.875 8.034 17.908 17.908 17.908s17.908-8.034 17.908-17.908c0-2.5-0.498-4.907-1.483-7.156-3.961-9.062 0.172-19.621 9.234-23.582 9.051-3.958 19.621 0.172 23.582 9.234 2.976 6.802 4.484 14.037 4.484 21.505 0 29.624-24.101 53.725-53.725 53.725s-53.725-24.101-53.725-53.725z" />
<glyph unicode="&#xe907;" glyph-name="button" d="M955.157 43.719l-172.552 223.389 97.192 33.702c6.891 2.389 11.808 8.506 12.66 15.752 0.85 7.243-2.516 14.334-8.663 18.257l-170.673 108.845c21.91 38.752 35.904 80.993 41.661 125.84 11.783 91.759-12.873 182.611-69.426 255.823-56.55 73.21-138.228 120.017-229.988 131.797s-182.608-12.876-255.821-69.426c-73.21-56.55-120.017-138.228-131.797-229.988-11.783-91.759 12.873-182.611 69.426-255.823 56.55-73.21 138.228-120.017 229.988-131.797 14.994-1.925 29.931-2.886 44.788-2.886 29.584 0 58.833 3.873 87.473 11.466l62.219-192.694c2.239-6.939 8.253-11.988 15.475-12.995 7.228-1.004 14.387 2.209 18.44 8.27l57.162 85.531 172.555-223.389c3.084-3.992 7.629-6.596 12.63-7.238 0.806-0.104 1.618-0.155 2.422-0.155 4.185 0 8.28 1.382 11.628 3.966l99.776 77.073c8.316 6.421 9.848 18.367 3.426 26.68zM372.008 307.823c-81.681 10.487-154.386 52.15-204.728 117.321-50.339 65.168-72.287 146.042-61.8 227.723s52.153 154.386 117.323 204.725c65.168 50.342 146.047 72.292 227.72 61.8 81.681-10.487 154.386-52.15 204.728-117.321 50.339-65.168 72.287-146.042 61.8-227.723-5.037-39.236-17.167-76.21-36.074-110.187l-47.986 30.601c19.553 36.396 29.825 77.108 29.825 118.855 0 138.695-112.85 251.532-251.557 251.532-138.693 0-251.532-112.837-251.532-251.532 0-138.71 112.837-251.557 251.532-251.557 19.985 0 39.751 2.351 58.988 6.982l17.484-54.151c-37.651-9.711-76.484-12.107-115.723-7.068zM393.164 607.764l65.346-202.372c-15.43-3.492-31.25-5.288-47.25-5.288-117.719 0-213.49 95.784-213.49 213.516 0 117.719 95.771 213.49 213.49 213.49 117.734 0 213.516-95.771 213.516-213.49 0-34.476-8.263-68.097-23.979-98.323l-179.306 114.348c-6.764 4.311-15.508 3.918-21.856-0.984-6.345-4.905-8.937-13.264-6.47-20.898zM843.753-18.299l-177.097 229.27c-3.609 4.672-9.173 7.393-15.052 7.393-0.218 0-0.436-0.003-0.654-0.010-6.117-0.21-11.763-3.35-15.163-8.44l-50.022-74.846-140.161 434.079 384.592-245.268-85.051-29.492c-5.782-2.006-10.248-6.67-11.996-12.539-1.747-5.866-0.568-12.214 3.175-17.060l177.094-229.27-69.665-53.816z" />
<glyph unicode="&#xe908;" glyph-name="check" d="M1003.932 799.196c-26.758 26.758-67.924 26.758-94.681 0l-559.855-559.855-234.645 232.587c-26.758 26.758-67.924 26.758-94.681 0s-26.758-67.924 0-94.681l281.986-279.928c12.35-12.35 30.874-20.583 47.341-20.583s34.991 8.233 47.341 20.583l607.196 605.138c26.758 26.758 26.758 69.982 0 96.74z" />
<glyph unicode="&#xe909;" glyph-name="check-bold" d="M463.524 101.102c-46.426-46.426-121.757-46.426-168.161 0l-260.543 260.543c-46.426 46.404-46.426 121.735 0 168.138 46.404 46.426 121.735 46.426 168.161 0l155.232-155.21c11.719-11.696 30.742-11.696 42.483 0l420.324 420.324c46.404 46.426 121.735 46.426 168.161 0 22.294-22.294 34.82-52.543 34.82-84.069s-12.525-61.775-34.82-84.069l-525.657-525.657z" />
<glyph unicode="&#xe90a;" glyph-name="clip" d="M713.776 663.767c-17.694 0-31.965-13.699-31.965-31.405v-464.047c0-47.381-17.121-86.189-50.232-119.3s-72.491-50.232-120.431-50.232c-46.809 0-86.762 16.549-119.871 49.659-33.109 33.108-49.659 73.062-49.659 119.871v612.463c0 31.392 11.556 58.645 33.682 81.051 22.406 22.686 49.646 34.815 82.195 34.815 32.538 0 59.79-12.129 82.182-34.815 22.126-22.406 33.683-49.659 33.683-81.051v-521.146c0-32.525-25.11-57.647-57.647-57.647-31.394 0-57.087 26.254-57.087 57.647v271.138c0 17.694-13.7 31.392-31.392 31.392s-31.392-13.699-31.392-31.392v-271.138c0-33.669 11.422-62.212 34.815-85.618 23.405-23.405 51.376-34.815 85.058-34.815 33.669 0 61.931 11.702 85.616 34.815 23.125 22.564 34.816 50.803 34.816 85.618v521.146c0 49.086-17.84 91.183-52.508 126.143-34.962 35.253-77.059 53.080-126.145 53.080-49.098 0-91.194-17.827-126.155-53.080-34.667-34.961-52.507-77.057-52.507-126.143v-612.461c0-64.503 22.832-119.3 67.924-164.391s99.888-67.925 164.391-67.925 120.431 21.686 166.096 67.353c45.664 45.664 67.924 101.593 67.924 164.964v464.045c0 17.707-13.7 31.405-31.392 31.405z" />
<glyph unicode="&#xe90b;" glyph-name="clock" d="M511.999-64c282.505 0 511.999 229.494 511.999 511.999s-229.492 512.001-511.999 512.001-511.999-229.494-511.999-511.999 229.494-512.001 511.999-512.001zM511.999 879.476c238.217 0 431.475-193.928 431.475-431.475s-193.928-431.475-431.475-431.475-431.475 193.256-431.475 431.475 193.258 431.475 431.475 431.475zM446.909 362.778l172.457-134.208c7.382-5.369 16.105-8.723 24.828-8.723 12.079 0 24.157 5.369 31.539 15.435 13.421 17.448 10.736 42.945-7.382 56.367l-156.352 122.129v275.795c0 22.144-18.118 40.262-40.262 40.262s-40.262-18.118-40.262-40.262v-295.256c0-12.749 6.039-24.157 15.435-31.539z" />
<glyph unicode="&#xe90c;" glyph-name="coins" d="M784 608c-26.468 0-48-21.534-48-48s21.532-48 48-48 48 21.534 48 48-21.532 48-48 48zM784 544c-8.822 0-16 7.178-16 16s7.178 16 16 16 16-7.178 16-16-7.178-16-16-16zM960 560h-25.524c-28.78 69.686-80.878 131.172-150.476 176.82v175.18c0 8.836-7.164 16-16 16-72.86 0-133.254-54.39-142.712-124.702-37.418 8.434-75.438 12.702-113.288 12.702-119.19 0-231.36-39.634-315.846-111.604-43.726-37.248-77.342-80.864-99.742-128.418-0.138 0.004-0.272 0.022-0.412 0.022-35.29 0-64 28.71-64 64 0 13.98 4.424 27.26 12.792 38.398 5.308 7.066 3.884 17.096-3.182 22.404-7.064 5.308-17.094 3.88-22.402-3.182-12.566-16.728-19.208-36.652-19.208-57.62 0-48.708 36.468-89.028 83.53-95.164-12.862-36.080-19.53-74.008-19.53-112.836 0-126.066 71.586-243.256 192-315.176v-84.824c0-35.29 28.71-64 64-64h32c35.29 0 64 28.71 64 64v24.9c63.18-11.842 129.318-11.778 192-0.062v-24.838c0-35.29 28.71-64 64-64h32c35.29 0 64 28.71 64 64v84.958c66.588 39.76 118.492 93.188 151.494 155.042h40.506c35.29 0 64 28.71 64 64v160c0 35.29-28.71 64-64 64zM992 336c0-17.644-14.356-32-32-32h-25.448c5.874 14.306 10.796 28.98 14.696 43.97 2.226 8.55-2.904 17.29-11.456 19.514-8.552 2.222-17.288-2.902-19.514-11.456-5.386-20.694-12.932-40.738-22.438-59.974-0.386-0.66-0.73-1.344-1.018-2.060-31.282-62.17-83.384-115.666-151.366-154.304-6.534-3.712-9.504-11.384-7.456-18.388v-89.302c0-17.644-14.356-32-32-32h-32c-17.644 0-32 14.356-32 32v44.492c0 4.87-2.216 9.472-6.022 12.508-3.806 3.038-8.788 4.178-13.534 3.092-35.192-8.024-71.676-12.092-108.444-12.092-36.58 0-73.064 4.092-108.442 12.162-4.75 1.090-9.73-0.054-13.536-3.092-3.806-3.036-6.024-7.638-6.024-12.508v-44.562c0-17.644-14.356-32-32-32h-32c-17.644 0-32 14.356-32 32l0.002 94.008c0 5.746-3.082 11.050-8.074 13.898-115.168 65.682-183.926 174.876-183.926 292.094 0 194.094 186.618 352 416 352 37.422 0 75.036-4.47 112-13.266v-18.734c0-8.836 7.164-16 16-16s16 7.164 16 16v26.958c0.742 2.774 0.75 5.604 0.044 8.238 1.548 54.886 42.78 100.024 95.956 107.664v-159.196c-3.344-7.276-0.788-15.974 6.082-20.254 71.244-44.386 123.6-106.050 150.152-175.998 0.2-0.666 0.444-1.31 0.724-1.936 3.598-9.676 6.718-19.502 9.312-29.466 2.226-8.552 10.964-13.678 19.514-11.454 8.552 2.226 13.678 10.964 11.452 19.516-1.042 3.998-2.182 7.968-3.37 11.926h14.134c17.644 0 32-14.356 32-32v-159.998zM512 544c29.074 0 55.99-13.862 62.618-32.264 0.918-2.532 1.382-5.136 1.382-7.736 0-26.466 21.532-48 48-48s48 21.534 48 48c0 13.708-2.378 27.266-7.072 40.298-15.746 43.702-54.876 76.516-105.932 89.492-4.532 21.79-23.882 38.21-46.996 38.21-23.066 0-42.382-16.356-46.968-38.076-29.742-7.79-56.576-22.986-76.518-43.51-23.546-24.236-36.514-54.924-36.514-86.414 0-74.99 71.776-136 160-136 30.21 0 64-17.106 64-40s-33.79-40-64-40-64 17.106-64 40c0 26.466-21.532 48-48 48s-48-21.534-48-48c0-31.49 12.968-62.178 36.514-86.414 19.942-20.524 46.776-35.72 76.518-43.51 4.586-21.72 23.902-38.076 46.968-38.076s42.382 16.356 46.968 38.076c29.742 7.79 56.576 22.986 76.518 43.51 23.546 24.236 36.514 54.924 36.514 86.414 0 74.99-71.776 136-160 136-30.21 0-64 17.106-64 40s33.79 40 64 40zM512 432c70.58 0 128-46.654 128-104 0-47.73-41.63-90.288-98.988-101.192-7.548-1.436-13.012-8.036-13.012-15.718v-3.090c0-8.822-7.178-16-16-16s-16 7.178-16 16v3.090c0 7.684-5.462 14.284-13.012 15.718-57.358 10.904-98.988 53.462-98.988 101.192 0 8.822 7.178 16 16 16s16-7.178 16-16c0-39.702 43.066-72 96-72s96 32.298 96 72-43.066 72-96 72c-70.58 0-128 46.654-128 104 0 47.73 41.63 90.288 98.988 101.192 7.548 1.436 13.012 8.036 13.012 15.718v3.090c0 8.822 7.178 16 16 16s16-7.178 16-16v-3.286c0-7.706 5.492-14.316 13.066-15.728 44.954-8.382 80.878-35.792 93.754-71.534 3.438-9.54 5.18-19.45 5.18-29.452 0-8.822-7.178-16-16-16s-16 7.178-16 16c0 6.322-1.108 12.59-3.282 18.602-11.326 31.44-49.452 53.398-92.718 53.398-52.934 0-96-32.298-96-72s43.066-72 96-72zM329.406 713.502c-50.848-22.97-95.598-55.838-129.416-95.046-5.772-6.692-5.026-16.792 1.666-22.564 3.024-2.608 6.742-3.884 10.444-3.884 4.492 0 8.958 1.88 12.124 5.55 30.796 35.708 71.724 65.716 118.358 86.786 8.054 3.636 11.632 13.116 7.994 21.168-3.64 8.048-13.114 11.632-21.17 7.99zM394.098 704c1.428 0 2.88 0.194 4.324 0.596 11.918 3.338 24.19 6.176 36.474 8.434 8.692 1.598 14.442 9.938 12.844 18.628s-9.936 14.44-18.628 12.844c-13.238-2.434-26.466-5.492-39.318-9.090-8.508-2.382-13.476-11.212-11.092-19.722 1.976-7.066 8.4-11.69 15.396-11.69z" />
<glyph unicode="&#xe90d;" glyph-name="commerce" d="M971.4 563c-21.4 26.8-50.6 41.6-82.2 41.6h-72.2c-6.8 185.2-141 333.4-305 333.4s-298.2-148.2-305-333.4h-72.2c-31.6 0-60.8-14.8-82.2-41.6-27-33.6-36.8-80.4-26.6-125.4l86.6-381.6c13-57.6 57.8-98 108.8-98h581c51 0 95.8 40.2 108.8 98l86.8 381.6c10.2 45 0.4 91.8-26.6 125.4zM512 856.4c119.2 0 216.8-111.6 223.2-251.8h-446.4c6.4 140 104 251.8 223.2 251.8zM918.4 455.8l-86.6-381.8c-4.4-19.6-17-34.4-29.2-34.4h-581.2c-12.2 0-24.8 14.8-29.2 34.4l-86.6 381.8c-4.6 20.2-7.4 67.2 29.2 67.2h754.4c39.4 0 33.8-47 29.2-67.2zM309.4 441.8c-22.6 0-40.8-18.2-40.8-40.8v-255c0-22.6 18.2-40.8 40.8-40.8s40.8 18.2 40.8 40.8v255c0.2 22.4-18.2 40.8-40.8 40.8zM507.2 441.8c-22.6 0-40.8-18.2-40.8-40.8v-255c0-22.6 18.2-40.8 40.8-40.8s40.8 18.2 40.8 40.8v255c0 22.4-18.4 40.8-40.8 40.8zM704.8 441.8c-22.6 0-40.8-18.2-40.8-40.8v-255c0-22.6 18.2-40.8 40.8-40.8s40.8 18.2 40.8 40.8v255c0 22.4-18.2 40.8-40.8 40.8z" />
<glyph unicode="&#xe90e;" glyph-name="tags" d="M410.098 50.63c6.088-6.088 14.39-8.854 23.244-8.854h0.553c8.854 0 17.156 3.321 23.244 9.409l358.629 369.143c12.73 13.283 12.73 33.759-0.553 46.489l-385.194 384.639c-6.088 6.088-14.943 9.409-23.244 9.409v0l-371.358-0.553c-18.263 0-33.206-14.39-33.206-32.654l-2.213-364.717c0-8.854 3.321-17.711 9.962-23.797l400.137-388.514zM68.626 794.453l324.315 1.108 351.987-351.987-312.693-322.102-365.823 355.308 2.213 317.673zM627.047 808.288c-13.283-12.73-13.283-33.759-0.553-47.042l317.673-323.209-335.939-346.452c-12.73-13.283-12.175-34.314 0.553-47.042 6.641-6.088 14.943-9.409 23.244-9.409 8.854 0 17.156 3.321 23.797 9.962l358.629 369.698c12.73 12.73 12.73 33.759 0 46.489l-340.363 346.452c-13.283 12.73-34.314 13.283-47.042 0.553zM242.959 641.151c0-6.724-5.451-12.175-12.175-12.175s-12.175 5.451-12.175 12.175c0 6.724 5.451 12.175 12.175 12.175s12.175-5.451 12.175-12.175zM230.784 686.532c-24.905 0-45.381-20.477-45.381-45.381s20.477-45.381 45.381-45.381 45.381 20.477 45.381 45.381c-0.553 24.905-20.477 45.381-45.381 45.381zM230.784 620.119c-11.622 0-21.031 9.409-21.031 21.031s9.409 21.031 21.031 21.031c11.622 0 21.031-9.409 21.031-21.031s-9.409-21.031-21.031-21.031z" />
<glyph unicode="&#xe90f;" glyph-name="chat-comment" d="M383.905-60.062c-5.057 0-10.13 1.229-14.761 3.686-10.571 5.577-17.061 16.715-16.746 28.625l3.072 117.319h-79.006c-60.211 0-103.203 49.609-103.203 110.608v411.79c0 59.439 42.992 107.804 103.203 107.804h632.312c60.211 0 115.208-48.349 115.208-107.804v-411.743c0-60.983-54.981-110.608-115.208-110.608h-306.003l-200.515-143.754c-5.451-3.938-11.894-5.923-18.353-5.923zM276.496 656.738c-25.899 0-40.188-19.677-40.188-44.788v-411.743c0-25.836 15.155-47.592 40.188-47.592h111.348c8.507 0 16.652-3.419 22.575-9.515 5.939-6.112 9.153-14.336 8.917-22.827l-2.269-86.3 157.208 112.703c5.356 3.844 11.768 5.908 18.353 5.908h316.132c25.049 0 52.192 21.788 52.192 47.592v411.79c0 25.112-26.293 44.788-52.192 44.788h-632.265zM50.097 351.114c-7.436 0-11.878 2.615-17.881 7.94-23.048 20.401-32.217 47.199-32.217 77.477v411.743c0 59.439 42.992 107.788 103.203 107.788h632.312c60.211 0 115.208-48.349 115.208-107.804v-18.227c0-17.392-14.115-31.508-31.508-31.508s-31.508 14.115-31.508 31.508v18.243c0 25.112-26.293 44.788-52.192 44.788h-632.312c-25.899-0.016-40.188-19.692-40.188-44.788v-411.743c0-12.083 1.575-21.992 10.98-30.31 13.028-11.532 12.745-31.476 1.197-44.489-6.239-7.010-16.4-10.618-25.096-10.618zM482.367 514.954h-126.031c-8.712 0-15.754 7.042-15.754 15.754s7.042 15.754 15.754 15.754h126.031c8.712 0 15.754-7.042 15.754-15.754s-7.042-15.754-15.754-15.754zM702.921 514.954h-157.538c-8.712 0-15.754 7.042-15.754 15.754s7.042 15.754 15.754 15.754h157.538c8.712 0 15.754-7.042 15.754-15.754s-7.042-15.754-15.754-15.754zM828.952 514.954h-63.015c-8.712 0-15.754 7.042-15.754 15.754s7.042 15.754 15.754 15.754h63.015c8.712 0 15.754-7.042 15.754-15.754s-7.042-15.754-15.754-15.754zM419.352 436.185h-63.015c-8.712 0-15.754 7.058-15.754 15.754s7.042 15.754 15.754 15.754h63.015c8.712 0 15.754-7.042 15.754-15.754s-7.042-15.754-15.754-15.754zM608.398 436.185h-126.031c-8.712 0-15.754 7.058-15.754 15.754s7.042 15.754 15.754 15.754h126.031c8.712 0 15.754-7.042 15.754-15.754s-7.042-15.754-15.754-15.754zM828.952 436.185h-157.538c-8.712 0-15.754 7.058-15.754 15.754s7.042 15.754 15.754 15.754h157.538c8.712 0 15.754-7.042 15.754-15.754s-7.042-15.754-15.754-15.754zM513.875 341.662h-157.538c-8.712 0-15.754 7.042-15.754 15.754s7.042 15.754 15.754 15.754h157.538c8.712 0 15.754-7.042 15.754-15.754s-7.042-15.754-15.754-15.754zM734.429 341.662h-157.538c-8.712 0-15.754 7.042-15.754 15.754s7.042 15.754 15.754 15.754h157.538c8.712 0 15.754-7.042 15.754-15.754s-7.042-15.754-15.754-15.754zM828.952 341.662h-31.508c-8.712 0-15.754 7.042-15.754 15.754s7.042 15.754 15.754 15.754h31.508c8.712 0 15.754-7.042 15.754-15.754s-7.042-15.754-15.754-15.754zM419.352 262.892h-63.015c-8.712 0-15.754 7.042-15.754 15.754s7.042 15.754 15.754 15.754h63.015c8.712 0 15.754-7.042 15.754-15.754s-7.042-15.754-15.754-15.754zM592.644 262.892h-110.277c-8.712 0-15.754 7.042-15.754 15.754s7.042 15.754 15.754 15.754h110.277c8.712 0 15.754-7.042 15.754-15.754s-7.042-15.754-15.754-15.754z" />
<glyph unicode="&#xe910;" glyph-name="cross" d="M959.998 511.998h-384v384c0 35.346-28.652 63.998-63.998 63.998s-63.998-28.652-63.998-63.998v-383.996h-383.996c-35.346 0-64.005-28.652-64.005-63.998s28.659-63.998 64.005-63.998h383.996v-383.996c0-35.346 28.652-63.998 63.998-63.998s63.998 28.652 63.998 63.998v383.996h384c35.346 0 63.998 28.656 63.998 63.998 0.004 35.342-28.652 63.995-63.998 63.995z" />
<glyph unicode="&#xe911;" glyph-name="delete-bold" d="M603.347 448l413.965 413.943c8.91 8.921 8.91 23.376 0 32.297l-59.039 59.072c-4.283 4.272-10.108 6.688-16.159 6.688-6.062 0-11.877-2.416-16.159-6.688l-413.954-413.954-413.954 413.954c-8.576 8.576-23.754 8.565-32.308 0l-59.028-59.072c-8.921-8.921-8.921-23.376 0-32.297l413.954-413.943-413.954-413.943c-8.921-8.921-8.921-23.376 0-32.297l59.039-59.072c4.283-4.272 10.097-6.688 16.159-6.688s11.866 2.416 16.149 6.688l413.954 413.954 413.954-413.954c4.283-4.272 10.108-6.688 16.159-6.688s11.877 2.416 16.159 6.688l59.039 59.072c8.91 8.921 8.91 23.376 0 32.297l-413.975 413.943z" />
<glyph unicode="&#xe912;" glyph-name="delete" d="M9.054-54.949c6.033-6.031 13.94-9.049 21.847-9.049s15.814 3.018 21.847 9.049l459.254 459.256 459.256-459.259c6.031-6.031 13.943-9.049 21.849-9.049 7.904 0 15.811 3.018 21.847 9.049 12.064 12.064 12.064 31.627 0 43.696l-459.259 459.256 459.259 459.256c12.064 12.067 12.064 31.627 0 43.694-12.067 12.067-31.627 12.067-43.696 0l-459.256-459.256-459.256 459.251c-12.067 12.067-31.627 12.067-43.694 0-12.067-12.064-12.067-31.627 0-43.694l459.256-459.254-459.254-459.254c-12.067-12.067-12.067-31.63 0-43.694z" />
<glyph unicode="&#xe913;" glyph-name="draw" d="M1017.502 777.517l-160.457 160.454c-4.16 4.157-9.801 6.493-15.681 6.493-5.878 0-11.519-2.336-15.679-6.496l-30.343-30.343-9.68 9.68c-8.485 8.488-22.183 8.68-30.905 0.441l-616.814-585.14c-3.104-3.104-5.215-7.063-6.070-11.371l-39.638-200.113-88.607-135.259c-4.464-6.815-4.834-15.528-0.961-22.694s11.365-11.634 19.51-11.634h471.6c12.249 0 22.174 9.925 22.174 22.174s-9.925 22.174-22.174 22.174h-308.027l17.287 17.29 197.739 39.162c4.308 0.854 8.266 2.968 11.371 6.073l585.134 616.808c8.24 8.722 8.045 22.419-0.438 30.902l-9.686 9.686 30.352 30.355c8.654 8.66 8.654 22.7-0.009 31.36zM63.211-4.115l53.54 81.736 44.008-44.005-37.725-37.731h-59.823zM385.55 94.53l-186.126-36.865-62.226 62.223 36.871 186.123 25.166 25.169 211.481-211.484-25.166-25.166zM441.624 151.505l-210.579 210.582 48.023 45.362 207.913-207.916-45.356-48.029zM517.45 231.79l-206.127 206.127 387.712 366.2 184.615-184.621-366.2-387.706zM914.117 651.751l-182.826 182.829 38.252 36.132 180.701-180.712-36.126-38.249zM955.802 747.168l-129.1 129.1 14.661 14.664 129.103-129.097-14.664-14.667z" />
<glyph unicode="&#xe914;" glyph-name="exit-door" d="M751.421 258.548c-7.702 0-15.42 2.94-21.303 8.823-11.748 11.757-11.748 30.831 0 42.588l107.936 107.921h-429.803c-16.626 0-30.117 13.482-30.117 30.117s13.491 30.117 30.117 30.117h428.015l-106.321 108.093c-11.623 11.827-11.513 30.831 0.267 42.509 11.748 11.67 30.761 11.654 42.509-0.094l159.341-159.334c5.648-5.648 8.817-13.309 8.817-21.294s-3.169-15.646-8.817-21.294l-159.341-159.334c-5.883-5.876-13.601-8.819-21.301-8.819zM698.525-64h-585.286c-16.626 0-30.117 13.482-30.117 30.117v963.765c0 16.635 13.491 30.117 30.117 30.117h585.286c16.626 0 30.117-13.482 30.117-30.117v-176.376c0-16.635-13.491-30.117-30.117-30.117s-30.117 13.482-30.117 30.117v146.258h-525.051v-903.53h525.051v146.258c0 16.635 13.491 30.117 30.117 30.117s30.117-13.482 30.117-30.117v-176.376c0.002-16.635-13.489-30.117-30.117-30.117z" />
<glyph unicode="&#xe915;" glyph-name="facebook" d="M445.784 184h102.982c8.836 0 16 7.164 16 16v231.814h53.502c8.202 0 15.076 6.202 15.916 14.36l9.020 87.544c0.464 4.504-1.002 8.996-4.038 12.358-3.034 3.364-7.35 5.282-11.878 5.282h-62.522v35.46c0 7.324 2.318 7.872 5.856 7.872h55.364c8.836 0 16 7.164 16 16v85c0 8.812-7.124 15.964-15.936 16l-76.354 0.31c-53.504 0-82.058-23.54-96.59-43.286-20.292-27.574-23.322-59.882-23.322-76.686v-40.668h-32.978c-8.836 0-16-7.164-16-16v-87.544c0-8.836 7.164-16 16-16h32.978v-231.816c0-8.836 7.162-16 16-16zM412.804 463.814v55.544h32.978c8.836 0 16 7.164 16 16v56.668c0 10.37 1.666 36.752 17.094 57.72 14.772 20.074 38.6 30.252 70.752 30.252l60.354-0.244v-53.066h-39.364c-18.842 0-37.856-12.328-37.856-39.872v-51.46c0-8.836 7.164-16 16-16h60.79l-5.724-55.544h-55.066c-8.836 0-16-7.164-16-16v-231.812h-70.982v231.814c0 8.836-7.164 16-16 16h-32.976zM874.044 810.032c-96.704 96.708-225.282 149.968-362.044 149.968-136.752 0-265.324-53.26-362.032-149.968s-149.968-225.28-149.968-362.032c0-136.776 53.26-265.356 149.968-362.056 96.702-96.694 225.274-149.944 362.032-149.944 136.77 0 265.346 53.25 362.042 149.944 96.702 96.698 149.958 225.278 149.958 362.056 0 136.756-53.256 265.328-149.956 362.032zM851.416 108.572c-90.654-90.65-211.194-140.572-339.416-140.572-128.212 0-248.748 49.922-339.406 140.572-90.664 90.656-140.594 211.202-140.594 339.428 0 128.204 49.93 248.74 140.594 339.404 90.666 90.666 211.202 140.596 339.406 140.596 128.216 0 248.756-49.93 339.416-140.594 90.658-90.662 140.584-211.198 140.584-339.406 0-128.23-49.926-248.774-140.584-339.428zM860.076 730.062c-5.568 6.864-15.642 7.914-22.506 2.344-6.862-5.568-7.912-15.644-2.344-22.504 59.826-73.74 92.774-166.752 92.774-261.902 0-111.134-43.27-215.606-121.838-294.172-78.568-78.562-183.036-121.828-294.162-121.828-102.52 0-201.010 37.614-277.326 105.912-6.584 5.892-16.7 5.332-22.592-1.252s-5.332-16.7 1.252-22.592c82.192-73.558 188.26-114.068 298.666-114.068 119.674 0 232.178 46.594 316.788 131.202 84.614 84.61 131.212 197.118 131.212 316.798 0 102.468-35.488 202.638-99.924 282.062zM96 448c0 229.382 186.618 416 416 416 102.52 0 201.008-37.616 277.324-105.918 6.586-5.896 16.702-5.332 22.592 1.25 5.894 6.584 5.334 16.7-1.25 22.592-82.192 73.564-188.26 114.076-298.666 114.076-119.658 0-232.158-46.602-316.778-131.222-84.62-84.618-131.222-197.12-131.222-316.778 0-102.48 35.488-202.656 99.926-282.076 3.162-3.898 7.778-5.92 12.434-5.92 3.542 0 7.106 1.17 10.072 3.576 6.862 5.568 7.912 15.644 2.344 22.506-59.828 73.738-92.776 166.754-92.776 261.914z" />
<glyph unicode="&#xe916;" glyph-name="google" d="M512 960c-282.318 0-512-229.682-512-512s229.682-512 512-512 512 229.682 512 512-229.682 512-512 512zM512-5.421c-250.018 0-453.421 203.406-453.421 453.421s203.403 453.421 453.421 453.421 453.421-203.406 453.421-453.421-203.403-453.421-453.421-453.421zM734.385 477.29h-200.418c-16.178 0-29.29-13.112-29.29-29.29s13.112-29.29 29.29-29.29h168.913c-14.157-92.623-94.361-163.803-190.876-163.803-106.474 0-193.093 86.619-193.093 193.093s86.622 193.093 193.093 193.093c48.715 0 95.233-18.192 130.986-51.218 11.888-10.98 30.416-10.245 41.389 1.637 10.977 11.882 10.242 30.416-1.637 41.389-46.609 43.059-107.245 66.774-170.738 66.774-138.774 0-251.672-112.898-251.672-251.672s112.898-251.672 251.672-251.672 251.672 112.898 251.672 251.672c0 16.174-13.115 29.286-29.29 29.286z" />
<glyph unicode="&#xe917;" glyph-name="help" d="M1005.075 585.837c0 0.004-0.004 0.008-0.004 0.011-61.469 220.295-264.228 374.152-493.071 374.152-88.594 0-176.034-23.121-252.885-66.869l-0.004-0.004c-159.822-90.987-259.111-261.549-259.111-445.127 0-164.947 80.243-320.747 214.65-416.768 12.713-9.087 30.393-6.147 39.48 6.578 9.087 12.721 6.144 30.397-6.578 39.48-119.561 85.417-190.948 224.001-190.948 370.71 0 153.811 78.383 297.358 206.329 381.156l77.945-137.214c-79.002-55.511-127.041-146.599-127.041-243.941 0-65.311 20.74-127.316 59.986-179.317 32.204-42.68 75.96-76.273 125.173-96.542l-54.133-178.978c-0.275-0.909-0.502-1.826-0.683-2.747-0.128-0.653-0.208-1.306-0.287-1.959-0.034-0.264-0.087-0.525-0.113-0.789-0.075-0.781-0.102-1.562-0.109-2.34 0-0.14-0.019-0.283-0.019-0.423 0-0.792 0.053-1.577 0.121-2.359 0.011-0.136 0.008-0.268 0.023-0.404 0.075-0.74 0.196-1.472 0.328-2.2 0.034-0.181 0.049-0.366 0.083-0.543 0.132-0.649 0.306-1.287 0.483-1.921 0.072-0.257 0.121-0.521 0.2-0.774 0.166-0.543 0.377-1.075 0.574-1.608 0.125-0.336 0.23-0.675 0.366-1.008 0.204-0.491 0.449-0.962 0.683-1.442 0.166-0.347 0.313-0.702 0.494-1.042 0.174-0.325 0.381-0.623 0.566-0.94 0.279-0.475 0.547-0.959 0.853-1.415 0.189-0.283 0.404-0.543 0.604-0.819 0.343-0.475 0.679-0.959 1.053-1.411 0.17-0.208 0.358-0.392 0.532-0.596 0.434-0.498 0.864-0.996 1.336-1.464 0.14-0.14 0.294-0.264 0.438-0.404 0.525-0.502 1.053-0.996 1.615-1.46 0.125-0.102 0.26-0.192 0.389-0.291 0.592-0.472 1.192-0.928 1.83-1.355 0.17-0.113 0.351-0.208 0.525-0.317 0.6-0.385 1.208-0.762 1.842-1.102 0.351-0.189 0.721-0.343 1.083-0.517 0.472-0.226 0.936-0.472 1.423-0.672 0.875-0.362 1.77-0.687 2.683-0.962 48.061-14.517 97.934-21.88 148.23-21.88 161.977 0 310.962 74.247 408.749 203.706 67.545 89.428 103.248 196.035 103.248 308.294-0.004 46.465-6.37 92.84-18.929 137.833zM270.447 448c0 86.508 46.88 166.94 122.35 209.91 0.426 0.242 0.819 0.521 1.226 0.785 0.4 0.257 0.819 0.494 1.2 0.766 0.423 0.302 0.808 0.634 1.208 0.955 0.34 0.272 0.698 0.525 1.023 0.808 0.377 0.328 0.717 0.691 1.072 1.038 0.313 0.306 0.645 0.592 0.943 0.909 0.358 0.381 0.675 0.792 1.011 1.192 0.257 0.309 0.536 0.6 0.777 0.917 0.298 0.389 0.555 0.8 0.83 1.2 0.242 0.355 0.506 0.698 0.732 1.060 0.215 0.347 0.392 0.709 0.592 1.064 0.249 0.438 0.513 0.872 0.736 1.321 0.155 0.309 0.272 0.63 0.411 0.943 0.234 0.513 0.475 1.023 0.675 1.551 0.079 0.208 0.132 0.423 0.208 0.63 0.23 0.645 0.457 1.291 0.638 1.951 0.026 0.098 0.042 0.196 0.068 0.294 1.819 6.902 1.060 14.495-2.747 21.189l-91.27 160.668c62.009 30.321 130.543 46.243 199.869 46.243 194.057 0 367.023-124.384 430.1-305.765l-152.064-42.51c-43.846 113.772-154.415 191.038-278.036 191.038-15.634 0-28.303-12.672-28.303-28.303s12.668-28.303 28.303-28.303c107.836 0 203.412-72.605 232.432-176.559 6.053-21.695 9.125-43.563 9.125-64.994 0-52.665-16.914-102.889-48.918-145.252-0.004-0.004-0.004-0.008-0.008-0.011-46.231-61.194-116.44-96.289-192.631-96.289-23.612 0-47.141 3.491-69.93 10.374-101.048 30.525-171.623 125.588-171.623 231.179zM512-7.395c-35.272 0-70.311 4.068-104.5 12.117l45.669 151.007c19.385-3.91 39.076-5.887 58.831-5.887 84.636 0 163.272 35.031 219.726 97.002l126.108-95.108c-86.734-101.485-211.246-159.132-345.834-159.132zM891.944 196.908l-126.108 95.108c29.084 46.975 44.326 100.364 44.326 155.985 0 17.434-1.623 35.042-4.838 52.616l152.003 42.495c6.687-31.31 10.068-63.186 10.068-95.112 0-90.353-26.001-176.585-75.451-251.092z" />
<glyph unicode="&#xe918;" glyph-name="graphic-search" d="M388.766 496.1c-77.127-77.127-77.127-202.62 0-279.747 37.361-37.361 87.036-57.937 139.875-57.937s102.513 20.576 139.875 57.937c77.125 77.127 77.125 202.62 0 279.747-37.361 37.361-87.036 57.937-139.875 57.937s-102.515-20.576-139.875-57.937zM528.638 511.548c23.501 0 46.201-5.195 66.804-15.023l-77.816-184.915-100.049 153.149c0.418 0.427 0.807 0.872 1.232 1.295 29.335 29.338 68.341 45.495 109.828 45.495zM638.466 246.397c-29.335-29.338-68.341-45.493-109.828-45.493s-80.493 16.157-109.828 45.493c-49.059 49.059-58.365 123.035-27.94 181.559l113.046-173.048c3.945-6.040 10.654-9.627 17.781-9.627 0.637 0 1.277 0.029 1.916 0.087 7.825 0.707 14.621 5.676 17.669 12.919l90.187 214.309c2.382-2.109 4.727-4.271 6.995-6.541 60.563-60.561 60.563-159.1 0.002-219.658zM1020.807 536.713l-245.387 395.754c-4.238 6.834-11.971 10.689-19.977 9.963-8.008-0.727-14.918-5.913-17.857-13.398l-122.991-313.448c-27.365 9.039-56.3 13.735-85.958 13.735-58.819 0-114.79-18.478-161.307-52.673l-90.444 149.801c-4.074 6.751-11.573 10.676-19.424 10.229-7.872-0.458-14.84-5.24-18.103-12.418l-237.448-522.394c-4.855-10.683-0.132-23.277 10.549-28.132 2.851-1.297 5.839-1.91 8.777-1.91 8.075 0 15.795 4.629 19.353 12.458l220.763 485.686 73.348-121.486c-105.637-106.55-105.369-279.166 0.83-385.364 51.58-51.58 120.16-79.987 193.107-79.987 50.191 0 98.311 13.449 140.253 38.641l148.777-148.777c12.579-12.581 29.306-19.509 47.098-19.509s34.519 6.928 47.098 19.509c12.581 12.579 19.509 29.306 19.509 47.098s-6.928 34.519-19.509 47.098l-148.844 148.844c62.712 104.868 48.961 243.059-41.277 333.299-20.283 20.283-43.203 36.966-67.976 49.764l107.887 274.943 223.042-359.719c4.021-6.485 10.967-10.052 18.076-10.052 3.82 0 7.691 1.031 11.177 3.191 9.972 6.186 13.042 19.281 6.859 29.253zM881.822 37.147c4.555-4.555 7.064-10.611 7.064-17.054s-2.509-12.499-7.064-17.054-10.613-7.064-17.054-7.064c-6.44 0-12.499 2.509-17.054 7.064l-143.777 143.777c6.13 5.15 12.080 10.575 17.81 16.305 5.747 5.747 11.163 11.7 16.291 17.814l143.784-143.788zM691.7 519.288c89.914-89.914 89.914-236.211 0-326.125-43.556-43.556-101.464-67.542-163.063-67.542s-119.507 23.986-163.063 67.542c-89.914 89.914-89.914 236.211 0 326.125 43.556 43.556 101.467 67.542 163.063 67.542s119.507-23.986 163.063-67.542v0z" />
<glyph unicode="&#xe919;" glyph-name="hand-thumb" d="M132.325 395.161h43.967c-0.055-1.814-0.286-3.587-0.286-5.4v-74.665c0-15.942 12.928-28.871 28.871-28.871s28.857 12.928 28.857 28.871v74.665c0 58.341 47.486 105.813 105.841 105.813h22.447c110.45 0 135.161 103.236 159.082 203.090 0.014 0.027 0.014 0.055 0.014 0.095l33.712 140.671c4.009 16.774 14.306 30.957 28.993 39.972 14.674 9.014 32.007 11.783 48.754 7.732 16.747-4.023 30.944-14.306 39.944-28.993 9.014-14.674 11.769-32.007 7.746-48.754l-27.002-112.796c-3.696-15.506 5.864-31.080 21.356-34.789 2.25-0.546 4.514-0.805 6.737-0.805 13.051 0 24.875 8.892 28.052 22.147l26.989 112.782c7.623 31.762 2.4 64.56-14.674 92.394s-43.967 47.336-75.702 54.932c-31.721 7.637-64.56 2.414-92.408-14.674-27.821-17.088-47.336-43.981-54.918-75.715l-33.712-140.685c0-0.027-0.014-0.055-0.027-0.082-30.562-127.633-50.759-158.795-102.936-158.795h-22.447c-68.051 0-126.488-41.813-151.090-101.068-1.95 0.409-3.941 0.641-5.987 0.641h-50.172c-72.974 0-132.325-59.337-132.325-132.311v-138.544c0.014-31.98 11.578-62.828 32.539-86.857 5.714-6.532 13.719-9.887 21.779-9.887 6.723 0 13.488 2.346 18.956 7.105 12.028 10.474 13.269 28.707 2.796 40.735-11.81 13.528-18.329 30.93-18.342 48.945v138.503c-0.014 41.131 33.453 74.597 74.597 74.597zM339.574 7.038c-58.355 0-105.841 47.486-105.841 105.841v56.855c0 15.956-12.915 28.871-28.857 28.871s-28.871-12.915-28.871-28.871v-56.855c0-90.185 73.383-163.568 163.568-163.568 15.956 0 28.871 12.928 28.871 28.871 0.014 15.942-12.915 28.857-28.871 28.857zM922.578 587.259h-273.95c-55.914 0-101.395-45.481-101.395-101.395 0-15.656 3.668-30.425 10.010-43.667h-28.039c-55.914 0-101.381-45.467-101.381-101.381 0-43.013 26.961-79.766 64.819-94.481-8.619-14.906-13.651-32.157-13.651-50.595 0-40.394 23.811-75.238 58.082-91.535-9.737-15.547-15.438-33.848-15.438-53.514 0-55.914 45.481-101.395 101.395-101.395h197.212c55.914 0 101.395 45.481 101.395 101.395 0 21.056-6.464 40.626-17.47 56.841 30.753 17.429 51.577 50.391 51.577 88.207 0 21.043-6.464 40.626-17.47 56.841 30.753 17.429 51.591 50.418 51.591 88.235 0 21.043-6.451 40.613-17.47 56.828 30.753 17.429 51.591 50.418 51.591 88.221 0.014 55.914-45.481 101.395-101.409 101.395zM604.96 485.851c0 24.097 19.597 43.681 43.667 43.681h273.95c24.097 0 43.681-19.597 43.681-43.681s-19.597-43.667-43.681-43.667h-273.95c-24.070 0-43.667 19.597-43.667 43.667zM529.231 384.47h359.253c24.084 0 43.667-19.583 43.667-43.654 0-24.084-19.597-43.667-43.667-43.667h-359.253c-24.070 0-43.654 19.597-43.654 43.667-0.014 24.070 19.583 43.654 43.654 43.654zM580.399 239.407h273.991c24.070 0 43.64-19.597 43.64-43.667s-19.583-43.654-43.64-43.654h-273.991c-24.070 0-43.64 19.597-43.64 43.654-0.014 24.084 19.57 43.667 43.64 43.667zM820.256 7.038h-197.198c-24.084 0-43.667 19.583-43.667 43.654s19.597 43.667 43.667 43.667h197.212c24.070 0 43.654-19.597 43.654-43.667s-19.597-43.654-43.667-43.654zM442.851 7.038c-15.942 0-28.857-12.915-28.857-28.857s12.915-28.871 28.857-28.871h0.341c15.942 0 28.68 12.928 28.68 28.871s-13.078 28.857-29.021 28.857z" />
<glyph unicode="&#xe91a;" glyph-name="mail-send" d="M996.696 628.963l-303.733 303.733c-36.407 36.407-95.63 36.407-132.030 0l-533.632-533.625c-36.402-36.407-36.402-95.63 0-132.032l303.733-303.737c36.407-36.402 95.632-36.404 132.032 0l533.628 533.628c36.407 36.407 36.402 95.632 0.002 132.034zM387.019 0.159c-4.352 1.491-8.5 3.679-11.977 7.154l-303.733 303.731c-0.082 0.086-0.101 0.194-0.19 0.28l315.897 0.002v-311.167zM89.827 373.57l496.612 496.614 0.004-483.041c-0.004-7.262-6.321-13.583-13.585-13.583l-483.030 0.011zM449.251 37.506v273.818h123.61c20.261 0 39.304 7.888 53.615 22.199 14.313 14.313 22.197 33.351 22.199 53.617v123.608l273.806-0.011-473.23-473.232zM648.673 572.983v315.897c0.084-0.086 0.196-0.105 0.283-0.192l303.733-303.733c3.471-3.473 5.662-7.618 7.144-11.983l-311.159 0.011zM30.325 828.067h318.718c16.744 0 30.323 13.575 30.323 30.321s-13.577 30.323-30.323 30.323h-318.718c-16.748 0-30.323-13.575-30.323-30.323 0-16.746 13.575-30.321 30.323-30.321zM30.325 708.944h199.858c16.746 0 30.321 13.575 30.321 30.323 0 16.744-13.575 30.321-30.321 30.321h-199.858c-16.748 0-30.323-13.575-30.323-30.321 0-16.748 13.575-30.323 30.323-30.323zM30.325 593.428h129.038c16.744 0 30.323 13.575 30.323 30.323s-13.577 30.323-30.323 30.323h-129.038c-16.748 0-30.323-13.577-30.323-30.323s13.575-30.323 30.323-30.323zM159.363 35.862h-129.038c-16.748 0-30.323-13.577-30.323-30.323s13.575-30.323 30.323-30.323h129.038c16.744 0 30.323 13.575 30.323 30.323 0 16.746-13.577 30.323-30.323 30.323z" />
<glyph unicode="&#xe91b;" glyph-name="interface" d="M508.78-64c-70.842 0-137.392 12.881-201.794 40.788-17.175 6.441-23.613 25.76-17.175 42.935 6.441 17.175 25.76 23.613 42.935 17.175 55.816-23.613 113.777-36.494 176.034-36.494 246.876 0 446.525 199.647 446.525 446.525s-199.649 446.521-446.525 446.521c-212.528 0-397.149-150.272-437.938-358.508-2.147-10.734-4.294-23.613-4.294-34.348-2.145-17.173-4.292-34.346-4.292-53.667 0-115.924 45.082-227.556 126.658-311.279 12.881-12.881 12.881-32.201 0-45.082s-32.201-12.881-45.082 0c-92.311 96.604-143.833 221.116-143.833 356.361 0 21.467 2.147 42.935 4.294 62.257 2.147 12.881 4.294 25.76 6.441 40.788 47.229 238.288 259.757 410.029 502.339 410.029 281.223 0 510.927-229.703 510.927-510.927-4.294-283.37-233.995-513.073-515.22-513.073v0zM188.915-55.413c-55.816 0-111.63 15.028-161.006 42.935-15.028 8.587-21.467 27.907-10.734 45.082 8.587 15.028 27.907 21.469 45.082 10.734 38.641-23.613 83.723-34.348 128.805-34.348 40.788 0 79.429 8.587 115.924 27.907 15.028 8.587 34.348 2.147 42.935-15.028 8.587-15.028 2.147-34.348-15.028-42.935-47.229-23.615-94.457-34.348-145.978-34.348zM42.935-16.771c-12.881 0-23.613 6.441-30.054 19.322-6.441 17.175 0 34.348 17.175 42.935 42.935 19.322 79.429 49.376 107.337 88.017 10.734 15.028 30.054 19.322 45.082 8.587s19.322-30.054 8.587-45.082c-34.348-49.376-79.429-88.017-133.099-111.63-4.294-2.149-8.587-2.149-15.028-2.149zM766.39 582.172h-517.367c-17.175 0-32.201 15.028-32.201 32.201s15.028 32.201 32.201 32.201h517.367c17.175 0 32.201-15.028 32.201-32.201s-15.026-32.201-32.201-32.201zM766.39 416.873h-517.367c-17.175 0-32.201 15.028-32.201 32.201s15.028 32.201 32.201 32.201h517.367c17.175 0 32.201-15.028 32.201-32.201 0-19.322-15.026-32.201-32.201-32.201zM766.39 249.424h-109.483c-17.175 0-32.201 15.028-32.201 32.201 0 17.175 15.028 32.201 32.201 32.201h109.483c17.175 0 32.201-15.028 32.201-32.201s-15.026-32.201-32.201-32.201zM506.633 249.424h-257.61c-17.175 0-32.201 15.028-32.201 32.201 0 17.175 15.028 32.201 32.201 32.201h257.61c17.175 0 32.201-15.028 32.201-32.201s-15.026-32.201-32.201-32.201z" />
<glyph unicode="&#xe91c;" glyph-name="social-instagram" d="M858.99 818.004h-93.964c-30.697 0-55.686-24.991-55.686-55.686v-93.94c0-30.695 24.991-55.686 55.686-55.686h93.964c30.695 0 55.686 24.991 55.686 55.686v93.94c0 30.697-24.991 55.686-55.686 55.686zM865.914 668.378c0-3.828-3.097-6.924-6.924-6.924h-93.964c-3.828 0-6.925 3.097-6.925 6.924v93.94c0 3.828 3.121 6.924 6.925 6.924h93.964c3.802 0 6.924-3.097 6.924-6.924v-93.94zM804.571 947.809h-585.142c-120.979 0-219.429-98.45-219.429-219.429v-560.76c0-120.981 98.45-219.429 219.429-219.429h585.142c120.978 0 219.429 98.448 219.429 219.429v560.76c0 120.979-98.451 219.429-219.429 219.429zM975.238 167.62c0-94.111-76.557-170.667-170.667-170.667h-585.142c-94.111 0-170.667 76.556-170.667 170.667v365.714h245.785c-46.518-51.834-75.118-120.076-75.118-195.047 0-161.33 131.243-292.571 292.571-292.571s292.571 131.243 292.571 292.571c0 74.971-28.6 143.213-75.118 195.047h245.785v-365.714zM512 582.095c134.437 0 243.809-109.374 243.809-243.809 0-134.438-109.372-243.811-243.809-243.811s-243.809 109.372-243.809 243.811c0 134.435 109.372 243.809 243.809 243.809zM975.238 582.095h-301.861c-46.299 30.745-101.742 48.762-161.377 48.762-59.611 0-115.078-18.017-161.377-48.762h-301.861v146.285c0 94.111 76.556 170.667 170.667 170.667h585.142c94.109 0 170.667-76.556 170.667-170.667v-146.285zM512 167.62c94.111 0 170.667 76.556 170.667 170.667 0 94.108-76.556 170.667-170.667 170.667s-170.667-76.557-170.667-170.667c0-94.111 76.556-170.667 170.667-170.667zM512 460.189c67.219 0 121.905-54.689 121.905-121.903 0-67.219-54.687-121.905-121.905-121.905s-121.905 54.687-121.905 121.905c0 67.216 54.687 121.903 121.905 121.903z" />
<glyph unicode="&#xe91d;" glyph-name="left-large-arrow" d="M900.106 934.975c-8.188 15.436-24.129 25.025-41.601 25.025h-320.404c-47.589 0-91.934-23.522-118.624-62.921l-298.505-440.651c-3.381-4.99-3.453-11.514-0.186-16.576l282.742-438.248c26.504-41.080 71.512-65.604 120.397-65.604h320.153c17.514 0 32.972 9.182 41.351 24.56s7.713 33.347-1.781 48.062l-283.337 439.176 297.182 438.699c9.799 14.466 10.801 33.043 2.613 48.479zM872.606 903.355l-302.757-446.927c-3.381-4.99-3.453-11.514-0.186-16.576l288.726-447.526c3.435-5.322 3.675-11.821 0.645-17.384-3.032-5.563-8.623-8.883-14.957-8.883h-320.151c-38.629 0-74.197 19.38-95.14 51.841l-277.352 429.898 292.93 432.423c21.089 31.135 56.134 49.721 93.737 49.721h320.404c6.417 0 12.040-3.383 15.047-9.052 3.006-5.667 2.653-12.224-0.946-17.534zM338.419 276.255c-4.501 6.976-13.805 8.98-20.777 4.481-6.974-4.501-8.982-13.803-4.481-20.777l28.708-44.495c2.876-4.455 7.709-6.883 12.643-6.883 2.791 0 5.615 0.778 8.134 2.403 6.974 4.501 8.982 13.803 4.481 20.777l-28.708 44.495zM398.156 183.662c-4.501 6.974-13.801 8.98-20.777 4.481-6.974-4.501-8.982-13.803-4.481-20.777l84.515-130.998c2.876-4.457 7.709-6.883 12.643-6.883 2.791 0 5.615 0.778 8.134 2.403 6.974 4.501 8.982 13.803 4.481 20.777l-84.515 130.998zM790.7 895.875h-144.274c-8.3 0-15.029-6.729-15.029-15.029s6.729-15.029 15.029-15.029h144.274c8.3 0 15.029 6.729 15.029 15.029s-6.729 15.029-15.029 15.029zM582.291 895.875h-44.19c-8.3 0-15.029-6.729-15.029-15.029s6.729-15.029 15.029-15.029h44.19c8.3 0 15.029 6.729 15.029 15.029s-6.727 15.029-15.029 15.029z" />
<glyph unicode="&#xe91e;" glyph-name="lightbulb-on" d="M625.433 84.024v79.975c0.607 0.782 1.261 1.565 1.708 2.427 3.752 7.36 92.237 181.298 92.237 261.385 0 114.351-93.036 207.371-207.403 207.371s-207.403-93.020-207.403-207.371c0-67.138 74.020-213.326 94.361-252.22-0.080-0.655-0.383-1.213-0.383-1.9v-89.667c0-8.845 7.153-15.966 15.966-15.966h194.917c8.845 0 15.998 7.121 15.998 15.966zM481.864 364.855h60.273v-173.171c0-0.718 0.319-1.341 0.383-2.028h-61.087c0.080 0.687 0.399 1.309 0.399 2.028l0.032 173.171zM512.008 603.249c96.756 0 175.47-78.714 175.47-175.438 0-63.019-66.564-202.022-84.414-238.154h-29.394c0.080 0.687 0.399 1.309 0.399 2.028v173.171h16.365c8.829 0 15.966 7.137 15.966 15.966s-7.137 15.966-15.966 15.966h-16.365v7.983c0 8.829-7.153 15.966-15.966 15.966s-15.966-7.137-15.966-15.966v-7.983h-60.273v7.983c0 8.829-7.153 15.966-15.966 15.966s-15.966-7.137-15.966-15.966v-7.983h-21.315c-8.813 0-15.966-7.137-15.966-15.966s7.153-15.966 15.966-15.966h21.315v-173.171c0-0.718 0.319-1.341 0.399-2.028h-22.704c-29.091 55.355-91.088 184.491-91.088 238.154 0 96.74 78.714 175.438 175.47 175.438zM465.897 48.052c-8.813 0-15.966-7.121-15.966-15.966 0-8.829 7.153-15.966 15.966-15.966h92.206c8.813 0 15.966 7.137 15.966 15.966 0 8.845-7.153 15.966-15.966 15.966h-92.206zM527.974 751.799v112.116c0 8.829-7.169 15.966-15.966 15.966-8.813 0-15.966-7.137-15.966-15.966v-112.116c0-8.829 7.153-15.966 15.966-15.966s15.966 7.153 15.966 15.966zM783.707 623.318c4.087 0 8.175 1.565 11.288 4.678l79.273 79.289c6.243 6.243 6.243 16.334 0 22.576s-16.334 6.243-22.576 0l-79.273-79.289c-6.243-6.243-6.243-16.334 0-22.576 3.113-3.113 7.201-4.678 11.288-4.678zM727.282 832.461c-8.015 3.704-17.499 0.224-21.203-7.776l-47.101-101.721c-3.688-7.999-0.224-17.499 7.776-21.187 2.171-1.006 4.455-1.485 6.706-1.485 6.019 0 11.799 3.433 14.497 9.26l47.101 101.721c3.704 7.999 0.224 17.483-7.776 21.187zM324.819 844.452c-8.207-3.209-12.262-12.486-9.021-20.692l40.954-104.324c2.459-6.307 8.494-10.139 14.865-10.139 1.932 0 3.912 0.351 5.828 1.102 8.207 3.209 12.262 12.486 9.021 20.692l-40.954 104.324c-3.225 8.191-12.518 12.23-20.692 9.037zM28.931 538.218c-2.938-8.318 1.421-17.435 9.739-20.357l105.729-37.361c1.756-0.623 3.56-0.926 5.317-0.926 6.578 0 12.741 4.087 15.056 10.65 2.938 8.318-1.421 17.435-9.739 20.357l-105.729 37.361c-8.287 2.938-17.419-1.405-20.373-9.723zM985.33 217.343l-105.729 37.329c-8.318 2.874-17.435-1.453-20.373-9.755-2.938-8.318 1.437-17.435 9.739-20.357l105.729-37.313c1.756-0.607 3.56-0.926 5.317-0.926 6.578 0 12.741 4.119 15.056 10.666 2.938 8.302-1.453 17.435-9.739 20.357zM179.749 208.801c-3.816 7.951-13.364 11.352-21.299 7.52l-101.147-48.346c-7.951-3.784-11.32-13.348-7.52-21.299 2.746-5.716 8.462-9.053 14.418-9.053 2.315 0 4.662 0.479 6.881 1.565l101.147 48.362c7.951 3.752 11.32 13.3 7.52 21.251zM865.55 518.867l101.147 48.33c7.967 3.8 11.32 13.332 7.52 21.299-3.8 7.951-13.332 11.32-21.283 7.52l-101.147-48.33c-7.967-3.8-11.32-13.332-7.52-21.299 2.746-5.716 8.462-9.069 14.418-9.069 2.299-0.032 4.646 0.495 6.866 1.549zM225.86 624.548c3.097-3.018 7.121-4.534 11.144-4.534 4.151 0 8.302 1.613 11.432 4.822 0.543 0.559 0.766 1.277 1.229 1.884 0.623 0.463 1.341 0.718 1.916 1.277 6.243 6.243 6.243 16.334 0 22.576l-79.241 79.289c-6.243 6.243-16.35 6.243-22.592 0-0.782-0.798-1.182-1.772-1.772-2.666-0.878-0.591-1.868-1.006-2.634-1.788-6.163-6.323-6.035-16.413 0.287-22.576l80.231-78.283zM143.968 354.908c-0.319 8.829-7.951 16.286-16.509 15.407l-112.036-3.864c-8.813-0.319-15.727-7.712-15.423-16.509 0.319-8.638 7.376-15.439 15.966-15.439 0.192 0 0.367 0 0.559 0.032l112.036 3.864c8.813 0.287 15.711 7.68 15.407 16.509zM1007.475 400.652l-112.036-3.88c-8.813-0.303-15.711-7.68-15.407-16.493 0.303-8.638 7.376-15.423 15.95-15.423 0.192 0 0.351 0 0.559 0.016l112.036 3.88c8.813 0.319 15.711 7.664 15.407 16.493s-7.712 16.206-16.509 15.407z" />
<glyph unicode="&#xe91f;" glyph-name="line-graph" d="M914.3 790.053c-60.488 0-109.7-49.219-109.7-109.703 0-12.333 2.075-24.176 5.842-35.243l-192.207-211.274c-8.514 2.128-17.41 3.274-26.569 3.274-11.843 0-23.245-1.908-33.934-5.4l-55.079 50.611c2.090 8.449 3.219 17.268 3.219 26.347 0 60.488-49.212 109.698-109.7 109.698-60.486 0-109.7-49.209-109.7-109.698 0-11.219 1.701-22.043 4.843-32.239l-152.271-155.094c-9.343 2.595-19.176 4.014-29.336 4.014-60.493 0-109.705-49.212-109.705-109.698 0-60.488 49.212-109.703 109.7-109.703s109.7 49.214 109.7 109.703c0 10.864-1.611 21.357-4.566 31.274l152.948 155.785c9.059-2.43 18.567-3.746 28.38-3.746 11.951 0 23.455 1.946 34.232 5.497l54.854-50.401c-2.14-8.537-3.289-17.463-3.289-26.654 0-60.488 49.214-109.698 109.7-109.698 60.491 0 109.7 49.209 109.7 109.698 0 11.873-1.918 23.297-5.422 34.009l193.061 212.21c8.13-1.926 16.591-2.97 25.295-2.97 60.488 0 109.7 49.209 109.7 109.698 0.005 60.481-49.207 109.7-109.695 109.7zM396.166 558.287c27.366 0 49.627-22.263 49.627-49.624 0-27.366-22.261-49.629-49.627-49.629-27.363 0-49.624 22.263-49.624 49.629 0 27.361 22.261 49.624 49.624 49.624zM109.7 166.020c-27.363 0-49.624 22.268-49.624 49.629s22.261 49.624 49.624 49.624c27.363 0 49.627-22.263 49.627-49.624s-22.263-49.629-49.627-49.629zM591.662 277.781c-27.363 0-49.624 22.263-49.624 49.624 0 27.366 22.261 49.624 49.624 49.624 27.366 0 49.627-22.258 49.627-49.624 0-27.361-22.261-49.624-49.627-49.624zM914.3 630.722c-27.363 0-49.624 22.263-49.624 49.629 0 27.361 22.261 49.624 49.624 49.624s49.624-22.263 49.624-49.624c-0.002-27.366-22.263-49.629-49.624-49.629z" />
<glyph unicode="&#xe920;" glyph-name="loupe" d="M975.643 224.931l-80.73 80.73c25.494 59.486 38.24 118.97 38.24 186.955 0 259.184-208.197 467.384-467.384 467.384-118.97 0-237.942-46.738-327.171-135.967s-135.967-208.199-135.967-331.418c0-259.186 208.199-467.385 467.385-467.385 67.983 0 131.718 12.746 186.955 38.24l80.73-80.73c29.743-29.743 72.232-46.738 110.473-46.738 42.489 0 89.229 16.995 123.219 50.987 63.733 72.234 67.983 174.211 4.249 237.944v0zM470.018 110.209c-212.448 0-382.406 169.957-382.406 382.406 0 101.975 38.24 199.7 110.473 271.932s169.957 110.473 271.932 110.473c212.448 0 382.406-169.957 382.406-382.406s-169.959-382.406-382.406-382.406zM911.908 50.725c-33.99-33.99-84.98-33.99-114.723-4.249l-63.735 63.735c46.738 33.99 89.229 72.232 118.97 118.97l63.733-63.733c29.747-29.743 29.747-80.732-4.245-114.723zM550.746 777.295c-76.481 21.244-157.212 12.746-225.194-25.494s-118.97-101.975-140.214-178.456c-8.499-21.244 4.249-46.738 29.743-50.987 4.249 0 8.499 0 12.746 0 16.995 0 33.99 12.746 42.489 29.743 16.995 55.237 50.987 97.726 101.975 127.469 50.987 25.494 106.224 33.99 161.459 16.995 21.244-8.499 46.738 8.499 50.987 29.743 4.251 21.244-8.497 46.738-33.99 50.987v0z" />
<glyph unicode="&#xe921;" glyph-name="social-linkedin" d="M223.493 671.398h-193.979c-13.267 0-24.034-10.767-24.034-24.034v-678.1c0-13.265 10.767-24.032 24.034-24.032h194.004c13.267 0 24.034 10.769 24.034 24.032v678.099c-0.023 13.292-10.767 24.036-24.059 24.036zM199.459-6.703h-145.935v630.031h145.935v-630.031zM764.359 679.64c-94.191 0-155.814-40.642-191.602-75.995l-4.422 46.025c-1.203 12.353-11.585 21.727-23.915 21.727h-0.48l-176.842-3.388c-6.489-0.12-12.643-2.86-17.065-7.595-4.446-4.735-6.778-11.055-6.489-17.522 2.212-49.51 2.14-107.384 2.043-174.391l-0.025-502.652c0-13.268 10.769-24.032 24.034-24.032h194.006c13.267 0 24.034 10.765 24.034 24.032v391.998c0 20.020 1.73 34.49 5.167 43.118 12.091 30.787 51.986 62.61 97.795 62.61 59.34 0 94.742-45.136 94.742-120.773v-376.951c0-13.268 10.769-24.032 24.034-24.032h190.591c13.267 0 24.034 10.765 24.034 24.032v401.562c0.002 195.519-97.073 312.228-259.639 312.228zM975.931-10.118h-142.523v352.919c0 102.579-56.072 168.841-142.811 168.841-68.834 0-124.809-47.972-142.473-92.988-5.841-14.589-8.557-33.938-8.557-60.808v-367.964h-145.935l0.025 478.546c0.072 56.914 0.144 107.289-1.178 151.992l130.145 2.5 7.476-77.511c1.201-12.33 11.56-21.727 23.939-21.727h4.084c8.292 0 15.984 4.253 20.383 11.296 14.18 22.664 69.481 96.592 185.879 96.592 134.472 0 211.573-96.279 211.573-264.16v-377.53h-0.027zM134.639 954.182c-78.015 0-134.639-53.763-134.639-127.861 0-74.049 55.495-127.789 131.947-127.789 78.808 0 136.010 53.74 136.010 128.366-1.754 74.938-56.576 127.284-133.317 127.284zM131.947 746.6c-49.391 0-83.879 32.783-83.879 79.721 0 47.731 34.801 79.793 86.572 79.793 50.639 0 84.119-31.533 85.25-79.793 0-47.685-35.355-79.721-87.942-79.721z" />
<glyph unicode="&#xe922;" glyph-name="loupe-2" d="M902.497 250.883c162.002 162.005 161.999 425.609 0 587.614-162.005 162.005-425.606 162.005-587.607 0-137.439-137.439-158.255-341.847-62.502-501.467 0 0 6.878-11.539-2.411-20.822-52.995-52.991-211.988-211.988-211.988-211.988-42.194-42.191-52.239-101.189-14.821-138.614l6.442-6.436c37.418-37.424 96.419-27.383 138.61 14.811 0 0 158.657 158.66 211.543 211.543 9.735 9.735 21.27 2.857 21.27 2.857 159.617-95.75 364.024-74.938 501.464 62.502zM391.599 327.595c-119.705 119.705-119.702 314.477 0.003 434.182 119.705 119.702 314.477 119.705 434.179 0 119.705-119.702 119.705-314.477 0-434.182-119.705-119.699-314.474-119.699-434.182 0zM418.117 569.348c-5.572 0-11.236 1.095-16.695 3.401-21.808 9.23-32.011 34.393-22.781 56.204 58.012 137.093 216.738 201.429 353.828 143.417 21.808-9.23 32.011-34.393 22.781-56.204-9.233-21.811-34.39-32.008-56.208-22.781-93.533 39.578-201.838-4.318-241.413-97.851-6.924-16.359-22.804-26.186-39.513-26.186z" />
<glyph unicode="&#xe923;" glyph-name="loupe-3" d="M428.434 792.295c-29.558 0-53.534-23.994-53.534-53.534 0-29.594 23.976-53.534 53.534-53.534 65.415 0 123.833-36.536 152.515-95.42 9.286-19.002 28.324-30.059 48.148-30.059 7.891 0 15.888 1.736 23.421 5.421 26.588 12.936 37.646 44.981 24.674 71.587-46.753 95.939-142.101 155.539-248.758 155.539zM1004.39 56.988l-178.405 178.423c52.818 74.289 84.184 164.843 84.184 262.75 0 250.941-204.152 455.093-455.093 455.093s-455.075-204.152-455.075-455.093c0-250.923 204.134-455.075 455.075-455.075 104.832 0 201.2 35.964 278.209 95.742l176.455-176.455c13.061-13.061 30.22-19.61 47.325-19.61 17.141 0 34.264 6.531 47.325 19.61 26.141 26.105 26.141 68.474 0 94.615zM107.104 498.143c0 191.896 156.129 348.007 348.007 348.007s348.007-156.111 348.007-348.007c0-79.836-27.286-153.266-72.697-212.061-15.012-19.413-31.866-37.324-50.582-53.194-60.691-51.494-139.078-82.752-224.729-82.752-191.896 0.018-348.007 156.129-348.007 348.007z" />
<glyph unicode="&#xe924;" glyph-name="email" d="M974.724 446.911l-30.727 17.295v272.501c0 4.916-3.986 8.902-8.902 8.902h-846.191c-4.916 0-8.902-3.986-8.902-8.902v-272.459l-30.727-17.334c-27.633-15.548-49.276-52.564-49.276-84.271v-363.464c0-33.215 27.022-60.239 60.239-60.239h903.523c33.215 0 60.239 27.022 60.239 60.239v363.464c0 31.707-21.645 68.724-49.276 84.269zM965.994 431.397c21.792-12.261 40.202-43.746 40.202-68.753v-2.446l-62.199-35.002v118.582l21.997-12.381zM926.194 727.804v-412.629l-373.822-210.371c-21.884-12.316-58.861-12.316-80.746 0l-373.82 210.371v412.629h828.387zM58.014 431.401l21.988 12.404v-118.611l-62.199 35.004v2.446c0 25.005 18.409 56.492 40.211 68.757zM963.761-43.258h-903.523c-23.398 0-42.435 19.035-42.435 42.435v47.207h249.136c4.916 0 8.902 3.986 8.902 8.902s-3.986 8.902-8.902 8.902h-249.136v51.316h110.897c4.916 0 8.902 3.986 8.902 8.902s-3.986 8.902-8.902 8.902h-110.897v206.46l445.090-250.477c13.767-7.748 31.437-11.623 49.104-11.623s35.337 3.875 49.104 11.623l445.094 250.477v-202.271h-195.25c-4.916 0-8.902-3.986-8.902-8.902s3.986-8.902 8.902-8.902h195.25v-120.515c0-23.398-19.037-42.435-42.435-42.435zM420.538 581.887h346.295c4.916 0 8.902 3.986 8.902 8.902s-3.986 8.902-8.902 8.902h-346.295c-4.916 0-8.902-3.986-8.902-8.902s3.986-8.902 8.902-8.902zM420.538 473.436h346.295c4.916 0 8.902 3.986 8.902 8.902s-3.986 8.902-8.902 8.902h-346.295c-4.916 0-8.902-3.986-8.902-8.902s3.986-8.902 8.902-8.902zM245.994 367.779h520.841c4.916 0 8.902 3.986 8.902 8.902s-3.986 8.902-8.902 8.902h-520.841c-4.916 0-8.902-3.986-8.902-8.902 0-4.918 3.986-8.902 8.902-8.902zM245.994 453.071h128.464c4.916 0 8.902 3.986 8.902 8.902v128.816c0 4.916-3.986 8.902-8.902 8.902h-128.464c-4.916 0-8.902-3.986-8.902-8.902v-128.816c0-4.916 3.986-8.902 8.902-8.902zM254.896 581.887h110.66v-111.012h-110.66v111.012zM364.713 788.818c-3.441-3.51-3.387-9.147 0.124-12.588 1.732-1.699 3.982-2.545 6.231-2.545 2.308 0 4.614 0.892 6.357 2.668 73.514 74.965 194.31 76.149 269.273 2.637 3.51-3.443 9.147-3.387 12.588 0.124s3.387 9.147-0.124 12.588c-81.972 80.384-214.061 79.090-294.449-2.884zM296.146 847.873c2.308 0 4.614 0.892 6.357 2.668 114.416 116.676 302.432 118.517 419.116 4.103 3.513-3.443 9.149-3.387 12.588 0.124 3.441 3.51 3.387 9.147-0.124 12.588-123.695 121.284-323.002 119.334-444.292-4.35-3.441-3.51-3.387-9.147 0.124-12.588 1.732-1.697 3.982-2.545 6.231-2.545z" />
<glyph unicode="&#xe925;" glyph-name="menu-dots-bold" d="M146.943 594.938c-81.025 0-146.943-65.914-146.943-146.939s65.918-146.939 146.943-146.939 146.939 65.914 146.939 146.939-65.918 146.939-146.939 146.939zM146.943 366.070c-45.18 0-81.935 36.755-81.935 81.932s36.755 81.932 81.935 81.932c45.177 0 81.932-36.755 81.932-81.932s-36.758-81.932-81.932-81.932zM512.002 594.938c-81.025 0-146.939-65.914-146.939-146.939s65.914-146.939 146.939-146.939 146.939 65.914 146.939 146.939-65.918 146.939-146.939 146.939zM512.002 366.070c-45.177 0-81.932 36.755-81.932 81.932s36.755 81.932 81.932 81.932 81.932-36.755 81.932-81.932-36.758-81.932-81.932-81.932zM877.061 594.938c-81.025 0-146.939-65.914-146.939-146.939s65.914-146.939 146.939-146.939 146.943 65.914 146.943 146.939-65.922 146.939-146.943 146.939zM877.061 366.070c-45.177 0-81.932 36.755-81.932 81.932s36.755 81.932 81.932 81.932c45.18 0 81.935-36.755 81.935-81.932s-36.758-81.932-81.935-81.932z" />
<glyph unicode="&#xe928;" glyph-name="menu-dots" d="M135.262 583.241c-74.584 0-135.262-60.677-135.262-135.241 0-74.579 60.677-135.241 135.262-135.241 74.563 0 135.241 60.657 135.241 135.241-0.005 74.563-60.683 135.241-135.241 135.241zM135.262 349.612c-54.239 0-98.388 44.149-98.388 98.388 0 54.218 44.149 98.352 98.388 98.352 54.218 0 98.352-44.129 98.352-98.352-0.021-54.239-44.134-98.388-98.352-98.388zM518.626 583.241c-74.579 0-135.262-60.677-135.262-135.241 0-74.579 60.677-135.241 135.262-135.241s135.262 60.657 135.262 135.241c0 74.563-60.677 135.241-135.262 135.241zM518.626 349.612c-54.218 0-98.352 44.149-98.352 98.388 0 54.218 44.149 98.352 98.352 98.352 54.239 0 98.367-44.129 98.367-98.352 0-54.239-44.129-98.388-98.367-98.388zM888.759 583.241c-74.6 0-135.277-60.677-135.277-135.241 0-74.579 60.677-135.241 135.277-135.241 74.563 0 135.241 60.657 135.241 135.241 0 74.563-60.677 135.241-135.241 135.241zM888.759 349.612c-54.239 0-98.367 44.149-98.367 98.388 0 54.218 44.129 98.352 98.367 98.352s98.331-44.129 98.331-98.352c0-54.239-44.092-98.388-98.331-98.388z" />
<glyph unicode="&#xe929;" glyph-name="musical" d="M512 960c-85.509 0-170.146-21.514-244.807-62.231-9.834-5.373-13.464-17.682-8.091-27.516 5.373-9.814 17.641-13.464 27.516-8.091 68.72 37.472 146.645 57.283 225.381 57.283 259.954 0 471.446-211.491 471.446-471.446s-211.491-471.446-471.446-471.446-471.446 211.491-471.446 471.446c0 126.956 49.781 246.064 140.176 335.365 7.969 7.868 8.050 20.703 0.182 28.672-7.888 7.969-20.723 8.030-28.672 0.162-98.162-96.966-152.241-226.314-152.241-364.199 0-282.32 229.68-512 512-512s512 229.68 512 512c0 282.32-229.68 512-512 512zM333.479 155.582c3.954-5.617 10.22-8.618 16.607-8.618 4.035 0 8.091 1.196 11.639 3.69l399.096 280.758c5.414 3.812 8.618 9.976 8.618 16.587s-3.204 12.775-8.618 16.587l-399.096 280.758c-6.185 4.36-14.295 4.907-21.007 1.419s-10.929-10.422-10.929-18.006v-383.828c0-11.193 9.084-20.277 20.277-20.277s20.277 9.084 20.277 20.277v344.774l343.577-241.705-375.534-264.172c-9.145-6.448-11.355-19.101-4.907-28.246z" />
<glyph unicode="&#xe92a;" glyph-name="people" d="M839.306 702.831h-85.593v233.79c0 12.91-10.469 23.379-23.379 23.379h-389.91c-12.912 0-23.379-10.469-23.379-23.379v-233.79h-38.835c-38.674 0-70.137-31.463-70.137-70.137v-56.11h-23.379c-38.674 0-70.137-31.463-70.137-70.137v-90.523c-27.211-9.651-46.758-35.637-46.758-66.116v-187.032c0-30.477 19.547-56.465 46.758-66.116v-90.523c0-38.674 31.463-70.137 70.137-70.137h654.612c64.456 0 116.895 52.439 116.895 116.895v533.041c0 64.456-52.439 116.895-116.895 116.895zM363.803 913.242h343.15v-336.658h-101.437v162.454c0 12.91-10.469 23.379-23.379 23.379s-23.379-10.469-23.379-23.379v-162.454h-46.758v162.454c0 12.91-10.467 23.379-23.379 23.379s-23.379-10.469-23.379-23.379v-162.454h-101.439v336.658zM254.831 632.694c0 12.891 10.488 23.379 23.379 23.379h38.835v-79.489h-62.214v56.11zM909.443 52.895c0-38.674-31.463-70.137-70.137-70.137h-654.612c-12.891 0-23.379 10.488-23.379 23.379v86.502h116.895c90.238 0 163.653 73.415 163.653 163.653s-73.415 163.653-163.653 163.653c-12.912 0-23.379-10.469-23.379-23.379s10.467-23.379 23.379-23.379c64.456 0 116.895-52.439 116.895-116.895s-52.439-116.895-116.895-116.895h-140.274c-12.891 0-23.379 10.488-23.379 23.379v187.032c0 12.891 10.488 23.379 23.379 23.379h60.526c12.912 0 23.379 10.469 23.379 23.379s-10.467 23.379-23.379 23.379h-37.147v86.502c0 12.891 10.488 23.379 23.379 23.379h619.543c32.228 0 58.447 26.22 58.447 58.447 0 12.91-10.469 23.379-23.379 23.379s-23.379-10.469-23.379-23.379c0-6.446-5.244-11.689-11.689-11.689h-50.524v79.489h85.593c38.674 0 70.137-31.463 70.137-70.137v-533.041zM196.384 256.292c0-45.119 36.707-81.826 81.826-81.826s81.826 36.707 81.826 81.826-36.707 81.826-81.826 81.826-81.826-36.707-81.826-81.826zM278.21 291.361c19.337 0 35.068-15.732 35.068-35.068s-15.732-35.068-35.068-35.068-35.068 15.732-35.068 35.068 15.732 35.068 35.068 35.068z" />
<glyph unicode="&#xe92b;" glyph-name="basket" d="M694.416 30.856h-364.831c-10.438 0-20.134 5.396-25.616 14.274l-198.156 320.548c-63.749 4.676-105.812 50.245-105.812 116.363 0 69.834 46.926 116.769 116.769 116.769h790.462c69.843 0 116.769-46.932 116.769-116.769 0-66.118-42.063-111.686-105.812-116.361l-198.156-320.55c-5.482-8.88-15.178-14.274-25.616-14.274zM346.377 91.091h331.246l197.914 320.158c5.482 8.877 15.178 14.274 25.616 14.274h6.078c36.456 0 56.534 20.078 56.534 56.518 0 36.456-20.078 56.534-56.534 56.534h-790.462c-36.456 0-56.534-20.078-56.534-56.534 0-36.44 20.078-56.518 56.534-56.518 1.021 0 2.023-0.047 3.019-0.157 11.051 1.225 22.415-3.983 28.675-14.117l197.914-320.158zM523.318 177.978c-13.309 0-24.093 10.793-24.093 24.093v200.659c0 13.303 10.784 24.093 24.093 24.093s24.093-10.793 24.093-24.093v-200.659c0.002-13.303-10.784-24.093-24.093-24.093zM399.977 170.65c-8.047 0-15.906 4.030-20.471 11.358l-125.177 200.942c-7.043 11.295-3.584 26.15 7.709 33.192 11.279 7.011 26.156 3.577 33.183-7.718l125.177-200.942c7.043-11.295 3.584-26.15-7.709-33.192-3.961-2.463-8.361-3.64-12.713-3.64zM623.938 171.090c-4.266 0-8.588 1.162-12.479 3.593-11.082 6.901-14.471 21.476-7.57 32.564l125.177 200.942c6.91 11.091 21.476 14.493 32.573 7.561 11.082-6.901 14.471-21.476 7.57-32.564l-125.177-200.942c-4.479-7.2-12.197-11.154-20.094-11.154zM430.557 546.462c-16.635 0-30.117 13.491-30.117 30.117v163.876c0 71.081 50.22 124.691 116.816 124.691h12.125c68.776 0 116.816-48.040 116.816-116.816v-163.874c0-16.626-13.482-30.117-30.117-30.117s-30.117 13.491-30.117 30.117v163.874c0 35.435-21.153 56.581-56.581 56.581h-12.125c-38.878 0-56.581-33.412-56.581-64.456v-163.874c0-16.629-13.482-30.12-30.117-30.12z" />
<glyph unicode="&#xe92c;" glyph-name="help-action" d="M811.078 913.427h174.344c12.86 0 23.286 10.426 23.286 23.286s-10.426 23.286-23.286 23.286h-174.344c-12.86 0-23.286-10.426-23.286-23.286s10.423-23.286 23.286-23.286zM976.024-17.427h-286.116l-61.219 61.219c55.633 28.518 104.913 69.623 144.156 121.568 0.006 0.006 0.012 0.012 0.016 0.019 55.574 73.576 84.949 161.288 84.949 253.655 0 38.224-5.238 76.38-15.568 113.405-30.887 110.688-105.125 200.987-201.127 254.524l48.79 48.79h286.116c12.86 0 23.286 10.426 23.286 23.286s-10.426 23.286-23.286 23.286h-295.76c-6.176 0-12.1-2.453-16.465-6.821l-67.071-67.068c-49.808 20.598-104.035 31.856-160.171 31.856-72.868 0-144.789-19.011-207.998-54.984-0.016-0.009-0.031-0.016-0.047-0.025-8.389-4.766-12.686-13.953-11.631-22.97 0.025-0.202 0.071-0.404 0.102-0.605 0.078-0.546 0.155-1.096 0.276-1.639 0.109-0.497 0.258-0.984 0.401-1.478 0.071-0.248 0.121-0.497 0.202-0.742 0.478-1.472 1.112-2.919 1.906-4.316l75.998-133.792c-64.997-45.669-104.522-120.618-104.522-200.708 0-53.736 17.067-104.752 49.352-147.537 26.5-35.116 62.498-62.756 102.988-79.432l-37.584-124.263c-66.5 24.823-125.812 68.919-168.796 125.905-49.284 65.333-75.33 143.249-75.33 225.323 0 86.52 30.217 170.917 85.086 237.64 8.169 9.932 6.738 24.609-3.195 32.778-9.929 8.166-24.606 6.738-32.778-3.195-61.709-75.032-95.692-169.935-95.692-267.217 0-92.277 29.298-179.89 84.722-253.369 53.593-71.046 129.799-124.278 214.577-149.887 39.544-11.944 80.577-18.002 121.959-18.002 50.938 0 100.303 8.954 146.363 25.929l80.882-80.882c4.365-4.369 10.29-6.821 16.465-6.821h295.76c12.86 0 23.286 10.426 23.286 23.286s-10.423 23.283-23.283 23.283zM560.655 772.37l-39.317-39.32c-9.094-9.094-9.094-23.839 0-32.93 4.546-4.546 10.507-6.821 16.465-6.821s11.92 2.273 16.465 6.821l52.413 52.413c91.078-46.638 161.981-129.681 190.701-232.607 9.194-32.952 13.854-66.897 13.854-100.889 0-74.34-21.393-145.289-62.082-206.592l-103.758 78.252c23.926 38.649 36.47 82.577 36.47 128.336 0 14.341-1.335 28.832-3.98 43.291l60.827 17.005c12.385 3.462 19.62 16.31 16.158 28.698-3.462 12.385-16.304 19.617-28.698 16.158l-60.905-17.027c-36.082 93.602-127.011 157.193-228.717 157.193-34.548 0-68.807-7.408-100.318-21.569l-64.128 112.896c51.016 24.948 107.407 38.044 164.446 38.044 43.123 0 84.955-7.517 124.105-21.352zM237.808 419.036c0 71.176 38.572 137.353 100.663 172.708 29.915 17.033 63.833 26.037 98.080 26.037 88.725 0 167.365-59.738 191.235-145.267 0 0 0-0.003 0-0.003 4.98-17.853 7.508-35.843 7.508-53.472 0-43.328-13.916-84.654-40.245-119.509-38.038-50.355-95.807-79.233-158.497-79.233-19.427 0-38.783 2.872-57.53 8.532-0.003 0-0.003 0-0.006 0.003-83.139 25.112-141.206 103.327-141.206 190.204zM436.553 44.347c-29.021 0-57.847 3.347-85.98 9.97l37.578 124.241c15.95-3.217 32.154-4.844 48.405-4.844 69.636 0 134.335 28.822 180.784 79.811l103.758-78.252c-35.613-41.673-78.972-74.358-127.24-96.651l-39.584 39.584c-9.094 9.094-23.839 9.094-32.93 0-9.094-9.094-9.094-23.839 0-32.93l24.799-24.799c-34.967-10.594-71.794-16.13-109.589-16.13zM985.419 61.356h-174.344c-12.86 0-23.286-10.426-23.286-23.286s10.426-23.286 23.286-23.286h174.344c12.86 0 23.286 10.426 23.286 23.286s-10.426 23.286-23.286 23.286z" />
<glyph unicode="&#xe92d;" glyph-name="pie-circular-graphic-with-bars-in-the-center-part-thin-symbol-outline-inside-a-circle" d="M512 960c-193.142 0-367.853-107.226-455.967-279.856 0-0.019-0.019-0.019-0.019-0.039-37.174-72.91-56.014-151.010-56.014-232.105 0-282.325 229.675-512 512-512 163.181 0 312.908 75.554 410.802 207.258 66.202 89.086 101.198 194.464 101.198 304.742 0 282.306-229.694 512-512 512zM707.573 302.939v0 0c0-0.019 0-0.039 0-0.039-46.584-62.702-117.861-98.671-195.573-98.671-134.445 0-243.81 109.364-243.81 243.771 0 38.593 8.982 75.748 26.734 110.492 0 0 0 0 0 0.019v0c41.86 82.223 125.035 133.259 217.057 133.259 134.445 0 243.81-109.364 243.81-243.771 0.019-52.456-16.662-102.598-48.218-145.061zM492.557 920.434v-190.44c-92.449-6.28-175.236-57.103-222.85-136.817l-169.617 86.305c80.803 143.778 228.255 234.283 392.467 240.951zM512-25.115c-260.88 0-473.115 212.235-473.115 473.115 0 68.457 14.718 134.581 43.435 196.895l170.122-86.578c-15.049-35.094-23.117-72.015-23.117-110.317 0-155.89 126.804-282.656 282.695-282.656 83.622 0 160.479 36.241 214.315 99.468l153.207-113.661c-90.447-112.164-223.278-176.266-367.542-176.266zM902.562 182.531l-152.76 113.272c29.378 45.651 44.912 97.796 44.912 152.196 0 149.299-116.441 271.612-263.252 281.664v190.945c251.878-10.246 453.653-218.262 453.653-472.629 0-95.366-28.717-186.668-82.553-265.449zM413.621 472.77c-10.732 0-19.443-8.691-19.443-19.443v-128.476c0-10.752 8.71-19.443 19.443-19.443s19.443 8.691 19.443 19.443v128.476c0 10.752-8.71 19.443-19.443 19.443zM518.086 569.166c-10.732 0-19.443-8.691-19.443-19.443v-224.872c0-10.752 8.71-19.443 19.443-19.443s19.443 8.691 19.443 19.443v224.872c-0.019 10.752-8.71 19.443-19.443 19.443zM620.412 603.929c-10.732 0-19.443-8.691-19.443-19.443v-262.338c0-10.752 8.71-19.443 19.443-19.443 10.752 0 19.443 8.691 19.443 19.443v262.338c0 10.752-8.691 19.443-19.443 19.443z" />
<glyph unicode="&#xe92e;" glyph-name="pie-graph" d="M1005.075 585.837c0 0.004-0.004 0.008-0.004 0.011-61.469 220.295-264.228 374.152-493.071 374.152-88.594 0-176.034-23.121-252.885-66.869l-0.004-0.004c-159.822-90.987-259.111-261.549-259.111-445.127 0-164.947 80.243-320.747 214.65-416.768 12.713-9.087 30.393-6.147 39.48 6.578 9.087 12.721 6.144 30.397-6.578 39.48-119.561 85.417-190.948 224.001-190.948 370.71 0 153.811 78.383 297.358 206.329 381.156l77.945-137.214c-79.002-55.511-127.041-146.599-127.041-243.941 0-65.311 20.74-127.316 59.986-179.317 32.204-42.68 75.96-76.273 125.173-96.542l-54.133-178.978c-0.275-0.909-0.502-1.826-0.683-2.747-0.128-0.653-0.208-1.306-0.287-1.959-0.034-0.264-0.087-0.525-0.113-0.789-0.075-0.781-0.102-1.562-0.109-2.34 0-0.14-0.019-0.283-0.019-0.423 0-0.792 0.053-1.577 0.121-2.359 0.011-0.136 0.008-0.268 0.023-0.404 0.075-0.74 0.196-1.472 0.328-2.2 0.034-0.181 0.049-0.366 0.083-0.543 0.132-0.649 0.306-1.287 0.483-1.921 0.072-0.257 0.121-0.521 0.2-0.774 0.166-0.543 0.377-1.075 0.574-1.608 0.125-0.336 0.23-0.675 0.366-1.008 0.204-0.491 0.449-0.962 0.683-1.442 0.166-0.347 0.313-0.702 0.494-1.042 0.174-0.325 0.381-0.623 0.566-0.94 0.279-0.475 0.547-0.959 0.853-1.415 0.189-0.283 0.404-0.543 0.604-0.819 0.343-0.475 0.679-0.959 1.053-1.411 0.17-0.208 0.358-0.392 0.532-0.596 0.434-0.498 0.864-0.996 1.336-1.464 0.14-0.14 0.294-0.264 0.438-0.404 0.525-0.502 1.053-0.996 1.615-1.46 0.125-0.102 0.26-0.192 0.389-0.291 0.592-0.472 1.192-0.928 1.83-1.355 0.17-0.113 0.351-0.208 0.525-0.317 0.6-0.385 1.208-0.762 1.842-1.102 0.351-0.189 0.721-0.343 1.083-0.517 0.472-0.226 0.936-0.472 1.423-0.672 0.875-0.362 1.77-0.687 2.683-0.962 48.061-14.517 97.934-21.88 148.23-21.88 161.977 0 310.962 74.247 408.749 203.706 67.545 89.428 103.248 196.035 103.248 308.294-0.004 46.465-6.37 92.84-18.929 137.833zM270.447 448c0 86.508 46.88 166.94 122.35 209.91 0.426 0.242 0.819 0.521 1.226 0.785 0.4 0.257 0.819 0.494 1.2 0.766 0.423 0.302 0.808 0.634 1.208 0.955 0.34 0.272 0.698 0.525 1.023 0.808 0.377 0.328 0.717 0.691 1.072 1.038 0.313 0.306 0.645 0.592 0.943 0.909 0.358 0.381 0.675 0.792 1.011 1.192 0.257 0.309 0.536 0.6 0.777 0.917 0.298 0.389 0.555 0.8 0.83 1.2 0.242 0.355 0.506 0.698 0.732 1.060 0.215 0.347 0.392 0.709 0.592 1.064 0.249 0.438 0.513 0.872 0.736 1.321 0.155 0.309 0.272 0.63 0.411 0.943 0.234 0.513 0.475 1.023 0.675 1.551 0.079 0.208 0.132 0.423 0.208 0.63 0.23 0.645 0.457 1.291 0.638 1.951 0.026 0.098 0.042 0.196 0.068 0.294 1.819 6.902 1.060 14.495-2.747 21.189l-91.27 160.668c62.009 30.321 130.543 46.243 199.869 46.243 194.057 0 367.023-124.384 430.1-305.765l-152.064-42.51c-43.846 113.772-154.415 191.038-278.036 191.038-15.634 0-28.303-12.672-28.303-28.303s12.668-28.303 28.303-28.303c107.836 0 203.412-72.605 232.432-176.559 6.053-21.695 9.125-43.563 9.125-64.994 0-52.665-16.914-102.889-48.918-145.252-0.004-0.004-0.004-0.008-0.008-0.011-46.231-61.194-116.44-96.289-192.631-96.289-23.612 0-47.141 3.491-69.93 10.374-101.048 30.525-171.623 125.588-171.623 231.179zM512-7.395c-35.272 0-70.311 4.068-104.5 12.117l45.669 151.007c19.385-3.91 39.076-5.887 58.831-5.887 84.636 0 163.272 35.031 219.726 97.002l126.108-95.108c-86.734-101.485-211.246-159.132-345.834-159.132zM891.944 196.908l-126.108 95.108c29.084 46.975 44.326 100.364 44.326 155.985 0 17.434-1.623 35.042-4.838 52.616l152.003 42.495c6.687-31.31 10.068-63.186 10.068-95.112 0-90.353-26.001-176.585-75.451-251.092z" />
<glyph unicode="&#xe92f;" glyph-name="pie-graph-split" d="M833.113 267.532l-355.542 171.823 114.561 382.197c3.591 11.976-3.1 24.617-15.021 28.388-43.229 13.669-88.247 20.602-133.808 20.602-244.438 0.003-443.304-198.862-443.304-443.304s198.865-443.31 443.304-443.31c85.44 0 168.39 24.37 239.883 70.474 69.595 44.88 125.142 108.055 160.634 182.694 5.404 11.366 0.622 24.962-10.707 30.436zM658.383 92.869c-64.084-41.326-138.458-63.172-215.080-63.172-219.202 0.003-397.536 178.337-397.536 397.542 0 219.202 178.334 397.539 397.536 397.539 33.307 0 66.287-4.128 98.331-12.29l-113.505-378.676c-3.228-10.768 1.843-22.283 11.964-27.174l352.048-170.135c-31.836-58.141-77.717-107.494-133.759-143.632zM936.525 752.71c-56.103 75.362-132.877 130.1-222.024 158.294-5.84 1.843-12.18 1.275-17.605-1.59-5.416-2.865-9.459-7.787-11.219-13.657l-120.16-400.886c-3.625-12.107 3.243-24.861 15.351-28.489 12.101-3.631 24.861 3.243 28.492 15.351l113.288 377.956c69.921-26.845 132.209-73.919 177.162-134.308 51.303-68.915 78.422-150.897 78.422-237.079 0-51.852-9.764-102.002-29.057-149.399l-179.429 86.712c-11.384 5.501-25.066 0.732-30.564-10.649-5.498-11.378-0.732-25.060 10.646-30.561l200.757-97.019c3.134-1.516 6.542-2.279 9.959-2.279 2.563 0 5.132 0.43 7.594 1.297 5.752 2.023 10.453 6.255 13.071 11.759 28.391 59.706 42.787 123.678 42.787 190.139 0.003 96.104-30.247 187.533-87.472 264.408z" />
<glyph unicode="&#xe930;" glyph-name="pin-map" d="M652.028 702.706c0 77.208-62.816 140.024-140.027 140.024s-140.024-62.816-140.024-140.024c0-77.211 62.816-140.027 140.024-140.027 77.211 0 140.027 62.816 140.027 140.027zM417.481 702.706c0 52.118 42.4 94.52 94.52 94.52s94.522-42.4 94.522-94.52c0-52.12-42.4-94.522-94.522-94.522-52.118 0-94.52 42.4-94.52 94.522zM431.937 273.080c13.219-27.72 29.674-62.217 80.065-62.217 50.398 0 66.846 34.497 80.065 62.219 1.699 3.565 34.181 67.685 34.181 67.685 69.215 136.027 143.058 287.395 143.058 361.936 0 141.875-115.427 257.296-257.304 257.296-141.875 0-257.296-115.422-257.296-257.294 0-74.536 73.841-225.906 143.055-361.938 0 0 32.477-64.123 34.176-67.688zM512.001 914.496c116.784 0 211.797-95.008 211.797-211.789 0-69.874-93.281-253.198-138.11-341.3 0 0-32.854-64.871-34.7-68.737-12.86-26.974-18.358-36.3-38.99-36.3-20.629 0-26.127 9.328-38.992 36.302-1.843 3.863-34.694 68.732-34.694 68.732-44.827 88.106-138.105 271.433-138.105 341.302 0.003 116.782 95.013 211.789 211.795 211.789zM933.295 178.641c0-133.793-108.846-242.639-242.636-242.639h-357.315c-133.793 0-242.639 108.849-242.639 242.639 0 49.319 14.872 96.871 43.007 137.519 27.439 39.644 65.483 70.023 110.019 87.854 11.662 4.667 24.909-0.999 29.58-12.668 4.669-11.664-1.001-24.909-12.665-29.578-74.43-29.798-124.436-103.391-124.436-183.127 0-108.702 88.435-197.135 197.135-197.135h357.315c108.697 0 197.132 88.432 197.132 197.135 0 79.736-50.009 153.329-124.442 183.127-11.667 4.672-17.337 17.914-12.668 29.578s17.916 17.342 29.578 12.668c44.536-17.833 82.583-48.209 110.024-87.854 28.139-40.648 43.012-88.2 43.012-137.519zM275.781 178.641c0-35.953 29.249-65.203 65.2-65.203h342.030c35.956 0 65.205 29.249 65.205 65.203 0 27.972-17.893 52.815-44.523 61.812-11.904 4.025-18.293 16.933-14.273 28.837 4.025 11.904 16.933 18.298 28.837 14.273 45.135-15.252 75.464-57.419 75.464-104.923 0-61.044-49.665-110.707-110.709-110.707h-342.030c-61.041 0-110.704 49.663-110.704 110.707 0 47.506 30.329 89.674 75.466 104.925 11.902 4.014 24.815-2.369 28.837-14.273s-2.369-24.815-14.273-28.837c-26.633-9-44.526-33.843-44.526-61.815z" />
<glyph unicode="&#xe931;" glyph-name="pinterest" d="M874.044 810.032c-96.704 96.708-225.282 149.968-362.044 149.968-136.752 0-265.324-53.26-362.032-149.968s-149.968-225.28-149.968-362.032c0-136.776 53.26-265.356 149.968-362.056 96.702-96.694 225.274-149.944 362.032-149.944 136.77 0 265.346 53.25 362.042 149.944 96.702 96.698 149.958 225.278 149.958 362.056 0 136.754-53.256 265.328-149.956 362.032zM851.416 108.572c-90.654-90.65-211.194-140.572-339.416-140.572-128.212 0-248.748 49.922-339.406 140.572-90.664 90.656-140.594 211.202-140.594 339.428 0 128.204 49.93 248.74 140.594 339.406 90.666 90.664 211.202 140.594 339.406 140.594 128.216 0 248.756-49.93 339.416-140.594 90.658-90.662 140.584-211.198 140.584-339.406 0-128.23-49.926-248.774-140.584-339.428zM860.076 730.062c-5.566 6.864-15.642 7.914-22.506 2.344-6.862-5.568-7.912-15.644-2.344-22.504 59.826-73.74 92.774-166.754 92.774-261.902 0-111.134-43.27-215.606-121.838-294.17s-183.036-121.83-294.162-121.83c-102.52 0-201.010 37.614-277.326 105.912-6.584 5.892-16.7 5.332-22.592-1.252s-5.332-16.7 1.252-22.592c82.192-73.558 188.26-114.068 298.666-114.068 119.674 0 232.178 46.594 316.788 131.202 84.614 84.608 131.212 197.118 131.212 316.798 0 102.466-35.488 202.638-99.924 282.062zM96 448c0 229.382 186.618 416 416 416 102.52 0 201.008-37.616 277.324-105.918 6.586-5.896 16.702-5.332 22.592 1.25 5.894 6.584 5.334 16.7-1.25 22.592-82.192 73.564-188.26 114.076-298.666 114.076-119.658 0-232.16-46.602-316.778-131.222-84.62-84.62-131.222-197.12-131.222-316.778 0-102.478 35.488-202.656 99.926-282.076 3.162-3.898 7.778-5.92 12.434-5.92 3.542 0 7.106 1.17 10.072 3.576 6.862 5.568 7.912 15.644 2.344 22.506-59.828 73.738-92.776 166.754-92.776 261.914zM377.298 178.216l0.156-1.054c1.088-7.922 6.764-14.372 14.504-16.46 1.774-0.478 3.57-0.71 5.344-0.71 6.19 0 12.118 2.83 16.004 7.886l0.58 0.742c13.318 16.97 45.622 61.25 57.912 105.794 2.206 8.040 9.066 34.938 14.508 56.39 18.074-13.404 42.622-21.81 67.152-21.81 52.596 0 99.874 23.64 133.12 66.564 31.872 41.142 49.422 98.288 49.422 160.908 0 49.7-21.292 98.652-58.42 134.308-39.31 37.75-93.634 58.542-152.97 58.542-90.23 0-145.88-37.13-176.678-68.278-38.086-38.52-59.93-89.728-59.93-140.49 0-64.47 27.352-114.1 73.14-132.75 7.882-3.226 16.052-3.080 23.010 0.416 6.92 3.476 11.892 9.92 13.96 17.99 0.71 2.662 1.876 7.296 3.066 12.026 1.224 4.87 2.474 9.842 3.254 12.75 3.832 14.45 0.254 22.276-7.702 31.682-11.314 13.33-16.584 29.258-16.584 50.13 0 35.070 12.924 67.764 36.392 92.060 25.154 26.042 59.586 39.806 99.574 39.806 69.344 0 112.422-39.192 112.422-102.28 0-83.060-35.958-148.122-81.862-148.122-11.354 0-21.48 4.57-27.78 12.538-5.852 7.402-7.752 17.068-5.348 27.214 3.226 13.604 7.636 27.92 11.904 41.764 8.090 26.25 15.73 51.046 15.73 71.476 0 37.25-23.138 62.278-57.576 62.278-42.362 0-75.544-42.108-75.544-95.862 0-23.32 5.692-41.476 9.098-50.252-6.074-25.72-33.25-140.814-38.522-163.042-10.426-44.058-5.312-95.444-1.336-122.154zM409.778 292.988c5.942 25.056 39.732 168.168 39.732 168.168 0.848 3.594 0.386 7.454-1.232 10.772-0.082 0.168-8.214 17.13-8.214 41.734 0 35.81 19.126 63.862 43.544 63.862 22.252 0 25.576-18.97 25.576-30.278 0-15.61-6.952-38.168-14.312-62.050-4.42-14.342-8.99-29.172-12.458-43.81-4.708-19.87-0.666-39.204 11.384-54.442 12.408-15.692 31.682-24.69 52.88-24.69 33.656 0 63.748 20.146 84.734 56.726 18.784 32.742 29.126 76.564 29.126 123.396 0 38.664-13.134 71.854-37.984 95.984-25.802 25.054-62.606 38.296-106.438 38.296-48.174 0-91.71-17.606-122.59-49.576-29.26-30.292-45.376-70.882-45.376-114.292 0-28.492 7.912-51.664 24.168-70.816 0.652-0.772 1.116-1.35 1.442-1.776-0.064-0.27-0.144-0.592-0.244-0.972-0.798-2.972-2.098-8.138-3.37-13.198-0.566-2.256-1.128-4.49-1.634-6.48-30.908 15.262-48.51 51.704-48.51 101 0 42.406 18.474 85.414 50.686 117.992 26.51 26.814 74.736 58.776 153.922 58.776 51.030 0 97.484-17.624 130.804-49.622 30.878-29.65 48.586-70.192 48.586-111.226 0-55.564-15.17-105.75-42.718-141.314-27.444-35.43-64.728-54.16-107.822-54.16-28.148 0-53.696 15.508-61.224 29.876-3.078 5.876-9.452 9.238-16.052 8.464-6.588-0.78-12.012-5.544-13.634-11.976-0.18-0.708-17.936-71.088-21.604-84.454-7.086-25.684-22.276-51.892-35.274-71.192-2.422 30.908-1.042 59.542 4.106 81.278z" />
<glyph unicode="&#xe932;" glyph-name="play-button-arrowhead" d="M217.828 937.422c-92.319 52.956-167.166 9.574-167.166-96.819v-785.131c0-106.499 74.847-149.825 167.166-96.919l686.243 393.556c92.351 52.974 92.351 138.801 0 191.763l-686.243 393.55z" />
<glyph unicode="&#xe933;" glyph-name="play" d="M797.356 485.005l-459.657 459.664c-20.454 20.44-53.604 20.44-74.047 0l-37.022-37.022c-20.44-20.454-20.44-53.614 0-74.040l385.597-385.613-385.597-385.56c-20.44-20.464-20.44-53.647 0-74.067l37.022-37.022c20.444-20.464 53.594-20.464 74.047 0l459.657 459.667c20.46 20.434 20.46 53.554 0 73.994z" />
<glyph unicode="&#xe934;" glyph-name="right-large-arrow" d="M903.028 456.428l-298.505 440.651c-26.69 39.399-71.035 62.921-118.624 62.921h-320.402c-17.474 0-33.415-9.589-41.603-25.025s-7.186-34.012 2.613-48.479l297.182-438.699-283.337-439.176c-9.495-14.717-10.16-32.684-1.781-48.062s23.839-24.56 41.353-24.56h320.151c48.887 0 93.893 24.524 120.397 65.604l282.74 438.248c3.266 5.064 3.194 11.589-0.184 16.576zM595.215 17.9c-20.943-32.461-56.51-51.841-95.14-51.841h-320.151c-6.334 0-11.927 3.32-14.957 8.883-3.032 5.563-2.791 12.062 0.643 17.384l288.726 447.526c3.266 5.064 3.194 11.589-0.186 16.576l-302.755 446.927c-3.599 5.312-3.952 11.867-0.946 17.534s8.633 9.052 15.047 9.052h320.402c37.605 0 72.648-18.586 93.737-49.721l292.93-432.423-277.35-429.898zM417.762 280.735c-6.972 4.499-16.276 2.495-20.777-4.481l-28.708-44.497c-4.501-6.974-2.495-16.278 4.481-20.777 2.519-1.625 5.342-2.403 8.134-2.403 4.934 0 9.769 2.429 12.643 6.883l28.708 44.495c4.501 6.976 2.495 16.278-4.481 20.779zM358.025 188.142c-6.972 4.499-16.278 2.493-20.777-4.481l-84.515-130.998c-4.501-6.974-2.493-16.278 4.481-20.777 2.519-1.625 5.342-2.403 8.134-2.403 4.934 0 9.769 2.429 12.643 6.883l84.515 130.998c4.501 6.976 2.493 16.278-4.481 20.777zM281.895 895.879h-52.499c-8.3 0-15.029-6.729-15.029-15.029s6.729-15.029 15.029-15.029h52.499c8.3 0 15.029 6.729 15.029 15.029s-6.729 15.029-15.029 15.029zM489.799 895.879h-144.468c-8.3 0-15.029-6.729-15.029-15.029s6.729-15.029 15.029-15.029h144.468c8.3 0 15.029 6.729 15.029 15.029s-6.729 15.029-15.029 15.029z" />
<glyph unicode="&#xe936;" glyph-name="right-arrow" d="M689.55 797.181c-13.95 14.438-37.168 14.438-51.606 0-13.95-13.95-13.95-37.168 0-51.086l261.674-261.674h-863.49c-20.129-0.033-36.128-16.032-36.128-36.16s15.999-36.648 36.128-36.648h863.49l-261.674-261.187c-13.95-14.438-13.95-37.689 0-51.606 14.438-14.438 37.689-14.438 51.606 0l323.622 323.622c14.438 13.95 14.438 37.168 0 51.086l-323.622 323.654z" />
<glyph unicode="&#xe937;" glyph-name="rss" d="M874.044 810.032c-96.704 96.708-225.282 149.968-362.044 149.968-136.752 0-265.324-53.26-362.032-149.968s-149.968-225.28-149.968-362.032c0-136.776 53.26-265.356 149.968-362.056 96.702-96.694 225.274-149.944 362.032-149.944 136.77 0 265.346 53.25 362.042 149.944 96.702 96.698 149.958 225.278 149.958 362.056 0 136.754-53.256 265.328-149.956 362.032zM851.416 108.572c-90.654-90.65-211.194-140.572-339.416-140.572-128.212 0-248.748 49.922-339.406 140.572-90.664 90.656-140.594 211.202-140.594 339.428 0 128.204 49.93 248.74 140.594 339.406 90.666 90.664 211.202 140.594 339.406 140.594 128.216 0 248.756-49.93 339.416-140.594 90.658-90.662 140.584-211.198 140.584-339.406 0-128.23-49.926-248.774-140.584-339.428zM860.076 730.062c-5.568 6.862-15.642 7.914-22.506 2.344-6.862-5.568-7.912-15.644-2.344-22.504 59.826-73.74 92.774-166.754 92.774-261.902 0-111.134-43.27-215.606-121.838-294.17s-183.036-121.83-294.162-121.83c-102.52 0-201.010 37.614-277.326 105.912-6.584 5.892-16.7 5.33-22.592-1.252-5.892-6.584-5.332-16.7 1.252-22.592 82.192-73.558 188.26-114.068 298.666-114.068 119.674 0 232.178 46.594 316.788 131.202 84.614 84.608 131.212 197.118 131.212 316.798 0 102.466-35.488 202.638-99.924 282.062zM96 448c0 229.382 186.618 416 416 416 102.52 0 201.008-37.616 277.324-105.918 6.586-5.896 16.7-5.334 22.592 1.25 5.894 6.584 5.334 16.7-1.25 22.592-82.192 73.564-188.26 114.076-298.666 114.076-119.658 0-232.16-46.602-316.778-131.222-84.62-84.62-131.222-197.12-131.222-316.778 0-102.478 35.488-202.656 99.926-282.076 3.162-3.898 7.778-5.92 12.434-5.92 3.542 0 7.106 1.17 10.072 3.576 6.862 5.568 7.912 15.644 2.344 22.506-59.828 73.738-92.776 166.754-92.776 261.914zM680.172 224.196h85.812c8.836 0 16 7.164 16 16 0 255.742-207.17 463.804-461.818 463.804-8.836 0-16-7.164-16-16v-85.836c0-8.836 7.164-16 16-16 189.686 0 344.006-155.2 344.006-345.966 0-8.838 7.164-16.002 16-16.002zM336.166 617.826v53.88c224.334-8.282 405.304-190.132 413.526-415.508h-53.852c-8.14 195.686-165.016 353.386-359.674 361.628zM512.592 240.308c0-8.836 7.164-16 16-16h85.81c8.836 0 16 7.164 16 16 0 171.758-139.22 311.496-310.346 311.496-8.836 0-16-7.164-16-16v-85.81c0-8.836 7.164-16 16-16 51.456 0 99.766-20.1 136.044-56.612 36.43-36.584 56.492-85.264 56.492-137.074zM336.056 519.348c140.792-8.048 253.908-121.658 261.896-263.040h-53.912c-3.756 54.302-26.596 104.82-65.252 143.64-38.538 38.784-88.73 61.7-142.732 65.486v53.914zM304 300.148c0-41.618 33.832-75.474 75.418-75.474 41.616 0 75.474 33.858 75.474 75.474 0 41.6-33.858 75.444-75.474 75.444-41.586 0-75.418-33.844-75.418-75.444zM422.892 300.148c0-23.972-19.502-43.474-43.474-43.474-23.94 0-43.418 19.502-43.418 43.474 0 23.956 19.478 43.444 43.418 43.444 23.972 0 43.474-19.49 43.474-43.444z" />
<glyph unicode="&#xe938;" glyph-name="search" d="M600.967 788.264c-57.325 57.325-133.543 88.897-214.615 88.897s-157.29-31.572-214.615-88.897-88.897-133.546-88.897-214.618c0-81.072 31.572-157.29 88.897-214.615s133.546-88.897 214.615-88.897c81.072 0 157.29 31.572 214.615 88.897s88.897 133.546 88.897 214.615c0 81.075-31.572 157.293-88.897 214.618zM572.399 387.601c-49.694-49.694-115.768-77.064-186.047-77.064s-136.353 27.367-186.047 77.064c-102.586 102.586-102.586 269.508 0 372.094 49.694 49.694 115.768 77.061 186.047 77.061s136.353-27.367 186.047-77.061c102.586-102.586 102.586-269.508 0-372.094zM509.207 776.011c-9.533 5.797-21.961 2.769-27.758-6.764s-2.769-21.961 6.764-27.758c13.347-8.116 25.77-17.888 36.929-29.048 3.943-3.946 9.115-5.918 14.284-5.918s10.341 1.972 14.284 5.918c7.89 7.89 7.89 20.679 0 28.568-13.433 13.436-28.407 25.212-44.504 35.001zM233.274 706.524c5.169 0 10.341 1.972 14.284 5.918 44.148 44.148 107.394 64.76 169.169 55.138 11.030-1.719 21.352 5.829 23.071 16.854 1.716 11.025-5.829 21.352-16.851 23.071-74.481 11.596-150.723-13.261-203.957-66.494-7.89-7.89-7.89-20.679 0-28.568 3.943-3.946 9.115-5.918 14.284-5.918zM282.645 406.944c-12.641 7.881-24.444 17.271-35.087 27.914-7.89 7.89-20.681 7.89-28.568 0-7.89-7.89-7.89-20.679 0-28.568 12.811-12.811 27.036-24.127 42.281-33.63 3.324-2.074 7.020-3.060 10.667-3.060 6.742 0 13.333 3.375 17.164 9.516 5.902 9.463 3.011 21.923-6.457 27.828zM525.145 434.858c-42.801-42.801-101.867-63.257-162.061-56.116-11.079 1.32-21.129-6.602-22.44-17.681-1.314-11.079 6.602-21.126 17.681-22.44 9.508-1.129 18.982-1.684 28.401-1.684 62.473 0 122.136 24.504 166.987 69.352 7.89 7.89 7.89 20.681 0 28.571-7.887 7.884-20.679 7.884-28.568-0.003zM999.475 79.127l-244.493 244.493c-7.89 7.89-20.681 7.89-28.568 0l-9.78-9.78-23.992 23.992c116.787 151.467 105.802 370.365-32.97 509.137-150.707 150.71-395.93 150.71-546.637 0-150.71-150.707-150.71-395.93 0-546.637 75.354-75.354 174.338-113.032 273.32-113.032 83.3 0 166.599 26.691 235.817 80.062l23.992-23.992-9.78-9.78c-3.79-3.787-5.918-8.927-5.918-14.284s2.128-10.497 5.918-14.284l244.493-244.493c16.35-16.35 37.824-24.523 59.302-24.523 21.473 0 42.952 8.175 59.302 24.523 32.695 32.695 32.695 85.899-0.005 118.599zM141.6 328.9c-65.376 65.376-101.379 152.296-101.379 244.749s36.005 179.375 101.379 244.749c65.376 65.374 152.296 101.379 244.749 101.379s179.378-36.005 244.752-101.379c65.376-65.376 101.379-152.296 101.379-244.749s-36.003-179.375-101.379-244.749c-65.376-65.374-152.296-101.379-244.749-101.379s-179.375 36.003-244.752 101.379zM652.919 293.748c2.271 2.163 4.523 4.353 6.75 6.583s4.42 4.482 6.583 6.75l21.81-21.81-13.333-13.333-21.81 21.81zM970.906-10.906c-16.948-16.945-44.517-16.943-61.463 0l-230.209 230.209 61.463 61.463 230.209-230.209c16.945-16.945 16.945-44.517 0-61.463z" />
<glyph unicode="&#xe939;" glyph-name="search-large" d="M902.552 838.575c-78.302 78.302-182.412 121.425-293.15 121.425s-214.844-43.123-293.146-121.425c-78.306-78.306-121.434-182.416-121.434-293.155 0-84.357 25.089-164.827 71.626-233.011l-243.702-243.697c-30.302-30.311-30.302-79.627 0.005-109.943 14.682-14.687 34.208-22.774 54.969-22.774s40.292 8.087 54.969 22.774l243.697 243.697c68.184-46.537 148.654-71.626 233.006-71.626 110.743 0 214.849 43.123 293.15 121.429 78.306 78.302 121.429 182.407 121.429 293.15 0.009 110.739-43.114 214.849-121.42 293.155zM869.073 285.748c-69.358-69.358-161.579-107.562-259.676-107.562-98.092 0-190.309 38.199-259.672 107.562s-107.562 161.579-107.562 259.676c0 98.092 38.199 190.309 107.562 259.676 69.363 69.358 161.584 107.552 259.676 107.552 98.097 0 190.314-38.194 259.676-107.557 69.358-69.363 107.562-161.584 107.562-259.676-0.005-98.092-38.204-190.314-107.566-259.672zM633.079 827.51c0-13.077-10.596-23.673-23.673-23.673-142.494 0-258.417-115.923-258.417-258.412 0-13.077-10.596-23.673-23.673-23.673s-23.673 10.596-23.673 23.673c0 168.596 137.167 305.759 305.764 305.759 13.072 0 23.673-10.601 23.673-23.673z" />
<glyph unicode="&#xe93a;" glyph-name="search-bold" d="M998.495 42.973l-207.978 207.978c58.549 74.556 93.793 168.318 93.793 270.475 0 242.218-196.356 438.574-438.574 438.574s-438.575-196.356-438.575-438.574 196.356-438.574 438.574-438.574c94.826 0 182.353 30.387 254.091 81.545l210.044-210.046c24.466-24.466 64.127-24.466 88.593 0 24.499 24.464 24.499 64.155 0.033 88.621zM689.238 300.822c-8.364-3.039-16.323-7.487-23.026-14.221-6.17-6.172-10.745-13.314-13.815-20.927-56.482-45.705-128.346-73.179-206.662-73.179-181.665 0-328.93 147.267-328.93 328.93s147.265 328.931 328.93 328.931 328.93-147.267 328.93-328.93c0-84.99-32.517-162.21-85.427-220.604z" />
<glyph unicode="&#xe93b;" glyph-name="search-outline" d="M993.847 76.333c-5.104 0-10.28 1.301-15.026 4.039l-403.79 233.123c-14.407 8.32-19.339 26.735-11.027 41.142 74.416 128.882 30.099 294.278-98.783 368.688-128.913 74.414-294.276 30.090-368.686-98.785-36.051-62.434-45.627-135.17-26.97-204.803 18.657-69.642 63.319-127.839 125.753-163.883 82.674-47.744 185.63-48.011 268.681-0.754 14.461 8.226 32.844 3.169 41.070-11.285 8.219-14.454 3.169-32.844-11.285-41.070-101.566-57.782-227.46-57.43-328.58 0.942-76.37 44.098-130.992 115.284-153.813 200.459s-11.112 174.148 32.976 250.511c91.012 157.648 293.314 211.878 450.969 120.835 148.848-85.946 205.471-271.112 134.708-424.212l378.89-218.741c14.407-8.32 19.339-26.735 11.027-41.142-5.582-9.661-15.708-15.064-26.114-15.064z" />
<glyph unicode="&#xe93c;" glyph-name="seo-landing-pages-symbol-inside-a-circle" d="M18.314-13.033h801.216c10.127 0 18.314 8.204 18.314 18.314v260.107h167.843c10.146 0 18.314 8.204 18.314 18.314v607.020c0 10.109-8.168 18.314-18.314 18.314h-801.216c-10.127 0-18.314-8.204-18.314-18.314v-253.441c0-2.362 0.531-4.597 1.337-6.666h-169.18c-10.127 0-18.314-8.204-18.314-18.314v-607.020c0-10.146 8.186-18.314 18.314-18.314zM222.784 637.279v235.127h764.589v-570.393h-149.53v310.286c0 10.109-8.186 18.314-18.314 18.314h-598.083c0.806 2.069 1.337 4.304 1.337 6.666zM36.627 593.986h764.589v-570.393h-764.589v570.393zM387.715 529.596h-282.413c-10.127 0-18.314-8.204-18.314-18.314v-282.394c0-10.127 8.186-18.314 18.314-18.314h282.413c10.127 0 18.314 8.186 18.314 18.314v282.394c0 10.109-8.186 18.314-18.314 18.314zM369.402 247.202h-245.786v245.767h245.786v-245.767zM746.276 348.201h-282.413c-10.127 0-18.314-8.204-18.314-18.314v-246.317c0-10.127 8.186-18.314 18.314-18.314h282.413c10.127 0 18.314 8.186 18.314 18.314v246.317c0 10.109-8.186 18.314-18.314 18.314zM727.962 101.884h-245.786v209.69h245.786v-209.69zM387.715 182.811h-282.413c-10.127 0-18.314-8.204-18.314-18.314v-64.958c0-10.109 8.186-18.314 18.314-18.314h282.413c10.127 0 18.314 8.204 18.314 18.314v64.958c0 10.109-8.186 18.314-18.314 18.314zM369.402 117.871h-245.786v28.294h245.786v-28.294zM746.276 474.838h-282.413c-10.127 0-18.314-8.204-18.314-18.314v-64.94c0-10.109 8.186-18.314 18.314-18.314h282.413c10.127 0 18.314 8.204 18.314 18.314v64.94c0 10.127-8.186 18.314-18.314 18.314zM727.962 409.899h-245.786v28.313h245.786v-28.313zM759.223 568.274c-7.161 7.161-18.735 7.161-25.895 0l-9.084-9.084-9.047 9.084c-7.179 7.161-18.735 7.161-25.895 0-7.179-7.161-7.179-18.735 0-25.895l9.047-9.084-9.047-9.084c-7.179-7.161-7.179-18.735 0-25.895 3.553-3.571 8.241-5.366 12.948-5.366 4.688 0 9.377 1.795 12.948 5.366l9.047 9.084 9.084-9.084c3.571-3.571 8.259-5.366 12.948-5.366s9.377 1.795 12.948 5.366c7.161 7.161 7.161 18.735 0 25.895l-9.084 9.084 9.084 9.084c7.161 7.161 7.161 18.753 0 25.895zM950.746 670.024v64.94c0 10.109-8.168 18.314-18.314 18.314h-282.431c-10.146 0-18.314-8.204-18.314-18.314v-64.94c0-10.109 8.168-18.314 18.314-18.314h282.431c10.146 0 18.314 8.186 18.314 18.314zM914.119 688.337h-245.804v28.313h245.804v-28.313zM605.078 753.277h-282.431c-10.127 0-18.314-8.204-18.314-18.314v-64.94c0-10.109 8.186-18.314 18.314-18.314h282.431c10.146 0 18.314 8.204 18.314 18.314v64.94c0 10.109-8.168 18.314-18.314 18.314zM586.765 688.337h-245.804v28.313h245.804v-28.313zM875.441 776.773c3.553-3.571 8.241-5.366 12.948-5.366 4.688 0 9.377 1.795 12.929 5.366l9.084 9.084 9.084-9.084c3.553-3.571 8.259-5.366 12.948-5.366s9.395 1.795 12.948 5.366c7.179 7.161 7.179 18.753 0 25.895l-9.084 9.084 9.084 9.084c7.179 7.142 7.179 18.735 0 25.895s-18.716 7.161-25.895 0l-9.084-9.084-9.084 9.084c-7.161 7.161-18.716 7.161-25.877 0-7.179-7.161-7.179-18.753 0-25.895l9.065-9.084-9.065-9.084c-7.179-7.142-7.179-18.753 0-25.895z" />
<glyph unicode="&#xe93d;" glyph-name="seo-search-symbol" d="M93.366 407.287c-30.342 0-59.761 9.774-78.911 19.596l-14.455-58.821c17.734-9.806 53.234-19.135 89.179-19.135 86.377 0 126.987 44.812 126.987 97.569 0 44.351-26.155 73.292-81.697 93.843-40.626 15.426-58.36 24.277-58.36 44.351 0 16.349 14.932 30.358 45.752 30.358s53.234-8.883 65.826-14.948l15.887 57.42c-18.689 8.405-44.828 15.871-80.312 15.871-74.231 0-119.059-41.071-119.059-94.767 0-45.752 34.083-74.693 86.377-92.904 37.808-13.547 52.756-24.754 52.756-44.335 0-20.568-17.288-34.099-49.97-34.099zM465.015 411.951h-129.311v74.693h115.764v57.898h-115.764v65.364h122.784v58.36h-194.23v-314.674h200.757zM705.633 329.713c44.176 0 84.658 15.903 116.178 42.234l62.674-58.487c-0.096-6.527 2.276-12.99 7.402-17.782l91.965-85.868c4.601-4.298 10.427-6.415 16.269-6.415 6.384 0 12.767 2.547 17.463 7.609 8.994 9.615 8.469 24.77-1.146 33.749l-91.965 85.852c-5.126 4.792-11.78 6.686-18.243 6.161l-61.846 57.707c26.601 31.568 42.727 72.289 42.727 116.719 0 100.052-81.379 181.431-181.431 181.431s-181.478-81.411-181.478-181.447c-0.016-100.084 81.379-181.463 181.431-181.463zM705.633 644.848c73.722 0 133.689-59.967 133.689-133.673s-59.999-133.689-133.689-133.689-133.689 59.983-133.689 133.689c0 73.706 59.967 133.673 133.689 133.673z" />
</font>
</defs>
</svg>
