<?xml version="1.0" encoding="utf-8"?>
<!-- Generator: Adobe Illustrator 19.0.1, SVG Export Plug-In . SVG Version: 6.00 Build 0)  -->
<svg version="1.1" id="Layer_1" xmlns="http://www.w3.org/2000/svg" xmlns:xlink="http://www.w3.org/1999/xlink" x="0px" y="0px"
	 viewBox="-281 404.9 32 32" style="enable-background:new -281 404.9 32 32;" xml:space="preserve">
<style type="text/css">
	.st0{fill:#FFFFFF;}
	.st1{fill:#EA4335;}
	.st2{fill:#FBBC05;}
	.st3{fill:#4285F4;}
	.st4{fill:#34A853;}
</style>
<g>
	<path class="st0" d="M-269.4,405.8c-3.9,1.3-7.2,4.2-9,7.9c-0.6,1.3-1.1,2.6-1.4,4c-0.7,3.5-0.2,7.1,1.4,10.3
		c1,2.1,2.5,3.9,4.3,5.3c1.7,1.3,3.7,2.4,5.8,2.9c2.6,0.7,5.5,0.7,8.1,0.1c2.4-0.6,4.7-1.7,6.5-3.4c1.9-1.8,3.3-4.1,4-6.6
		c0.8-2.7,0.9-5.6,0.4-8.4c-5,0-10,0-15,0c0,2.1,0,4.1,0,6.2c2.9,0,5.8,0,8.7,0c-0.3,2-1.5,3.8-3.2,4.9c-1.1,0.7-2.3,1.2-3.5,1.4
		c-1.2,0.2-2.5,0.2-3.8,0c-1.3-0.3-2.5-0.8-3.5-1.5c-1.7-1.2-3-2.9-3.6-4.9c-0.7-2-0.7-4.2,0-6.2c0.5-1.4,1.3-2.7,2.3-3.8
		c1.3-1.3,2.9-2.3,4.7-2.6c1.5-0.3,3.2-0.3,4.7,0.2c1.3,0.4,2.5,1.1,3.4,2c1-1,1.9-1.9,2.9-2.9c0.5-0.5,1.1-1,1.5-1.6
		c-1.5-1.4-3.2-2.5-5.1-3.2C-262.1,404.6-266,404.6-269.4,405.8z"/>
	<g>
		<path class="st1" d="M-269.4,405.8c3.4-1.2,7.3-1.2,10.7,0.1c1.9,0.7,3.6,1.8,5.1,3.2c-0.5,0.5-1,1-1.5,1.6c-1,1-1.9,1.9-2.9,2.9
			c-1-0.9-2.1-1.6-3.4-2c-1.5-0.5-3.1-0.5-4.7-0.2c-1.8,0.4-3.5,1.3-4.7,2.6c-1,1.1-1.8,2.3-2.3,3.8c-1.7-1.3-3.5-2.7-5.2-4
			C-276.6,410-273.3,407.1-269.4,405.8z"/>
	</g>
	<g>
		<path class="st2" d="M-279.8,417.6c0.3-1.4,0.7-2.7,1.4-4c1.7,1.3,3.5,2.7,5.2,4c-0.7,2-0.7,4.2,0,6.2c-1.7,1.3-3.5,2.7-5.2,4
			C-280,424.8-280.5,421.1-279.8,417.6z"/>
	</g>
	<g>
		<path class="st3" d="M-264.2,417.8c5,0,10,0,15,0c0.5,2.8,0.4,5.7-0.4,8.4c-0.7,2.5-2.1,4.8-4,6.6c-1.7-1.3-3.4-2.6-5-3.9
			c1.7-1.1,2.8-2.9,3.2-4.9c-2.9,0-5.8,0-8.7,0C-264.2,421.9-264.2,419.9-264.2,417.8z"/>
	</g>
	<g>
		<path class="st4" d="M-278.4,427.9c1.7-1.3,3.5-2.7,5.2-4c0.7,2,1.9,3.7,3.6,4.9c1.1,0.7,2.3,1.3,3.5,1.5c1.2,0.3,2.5,0.2,3.8,0
			c1.2-0.2,2.5-0.7,3.5-1.4c1.7,1.3,3.4,2.6,5,3.9c-1.8,1.7-4.1,2.8-6.5,3.4c-2.7,0.6-5.5,0.6-8.1-0.1c-2.1-0.6-4.1-1.6-5.8-2.9
			C-275.9,431.8-277.4,430-278.4,427.9z"/>
	</g>
</g>
</svg>
