<?xml version="1.0" ?><!DOCTYPE svg  PUBLIC '-//W3C//DTD SVG 1.1//EN'  'http://www.w3.org/Graphics/SVG/1.1/DTD/svg11.dtd'><svg enable-background="new 0 0 512 512" height="32px" id="Layer_1" version="1.1" viewBox="0 0 512 512" width="32px" xml:space="preserve" xmlns="http://www.w3.org/2000/svg" xmlns:xlink="http://www.w3.org/1999/xlink"><g><path clip-rule="evenodd" d="M63.938,384.107C28.567,384.107,0,412.683,0,448.054   S28.567,512,63.938,512c35.372,0,63.946-28.575,63.946-63.946S99.31,384.107,63.938,384.107L63.938,384.107z M63.938,320.161   C28.567,320.161,0,291.148,0,256.215c0-35.363,28.567-64.392,63.938-64.392c70.75,0,134.689,29.028,180.95,75.281   c46.26,46.261,75.273,110.207,75.273,180.949c0,35.371-28.56,63.946-63.931,63.946c-35.379,0-64.407-28.575-64.407-63.946   s-14.053-67.117-37.636-90.256C131.057,334.223,99.31,320.161,63.938,320.161L63.938,320.161z M63.938,127.885   C28.567,127.885,0,99.31,0,63.938C0,28.567,28.567,0,63.938,0c123.354,0,235.366,50.339,316.545,131.51   C461.662,212.688,512,324.708,512,448.054C512,483.425,483.425,512,448.054,512s-63.946-28.575-63.946-63.946   c0-87.975-36.277-167.794-94.333-225.843C232.187,164.162,151.922,127.885,63.938,127.885L63.938,127.885z" fill="#DD7346" fill-rule="evenodd"/></g></svg>