<?xml version="1.0" encoding="utf-8"?>
<!-- Generator: Adobe Illustrator 19.0.1, SVG Export Plug-In . SVG Version: 6.00 Build 0)  -->
<svg version="1.1" id="Layer_1" xmlns="http://www.w3.org/2000/svg" xmlns:xlink="http://www.w3.org/1999/xlink" x="0px" y="0px"
	 viewBox="-284.8 404.9 39.7 32" style="enable-background:new -284.8 404.9 39.7 32;" xml:space="preserve">
<style type="text/css">
	.st0{fill:#55ACEE;}
</style>
<path class="st0" d="M-245.5,408.7c-1.4,0.6-3,1.1-4.6,1.3c1.7-1,2.9-2.6,3.6-4.5c-1.6,0.9-3.3,1.6-5.1,2c-1.5-1.6-3.6-2.6-5.9-2.6
	c-4.5,0-8.1,3.6-8.1,8.1c0,0.6,0.1,1.3,0.2,1.8c-6.7-0.3-12.7-3.6-16.7-8.4c-0.7,1.2-1.1,2.6-1.1,4.1c0,2.8,1.4,5.3,3.6,6.7
	c-1.3,0-2.6-0.4-3.7-1c0,0,0,0.1,0,0.1c0,3.9,2.8,7.2,6.5,7.9c-0.7,0.2-1.4,0.3-2.1,0.3c-0.5,0-1-0.1-1.5-0.1c1,3.2,4,5.5,7.5,5.6
	c-2.8,2.2-6.2,3.5-10,3.5c-0.7,0-1.3,0-1.9-0.1c3.6,2.3,7.8,3.6,12.4,3.6c14.9,0,23-12.3,23-23c0-0.3,0-0.7,0-1
	C-247.9,411.7-246.6,410.3-245.5,408.7z"/>
</svg>
