<?xml version="1.0" ?><svg id="Layer_1" style="enable-background:new 0 0 97 97;" version="1.1" width="100px" height="100px" viewBox="0 0 97 97" xml:space="preserve" xmlns="http://www.w3.org/2000/svg" xmlns:xlink="http://www.w3.org/1999/xlink"><style type="text/css">
	.st0{fill:#292D34;}
	.st1{fill:#2DCB73;}
	.st2{fill:#F7C44C;}
	.st3{fill:#FFFFFF;}
</style><g><g><path class="st0" d="M48.5,96.5c-26.5,0-48-21.5-48-48s21.5-48,48-48v4c-24.3,0-44,19.7-44,44s19.7,44,44,44V96.5z"/></g><g><path class="st0" d="M49.1,96.5l0-4c1.3,0,2.6-0.1,3.8-0.2l0.4,4C51.9,96.4,50.5,96.5,49.1,96.5z M59.4,95.3l-0.9-3.9    c1.2-0.3,2.5-0.6,3.7-1l1.2,3.8C62.1,94.6,60.8,94.9,59.4,95.3z M69.2,91.8l-1.7-3.6c1.1-0.6,2.3-1.2,3.4-1.8l2,3.4    C71.7,90.5,70.5,91.2,69.2,91.8z M78.1,86.3l-2.5-3.1c1-0.8,2-1.6,2.9-2.5l2.7,2.9C80.2,84.5,79.2,85.4,78.1,86.3z M85.5,79    l-3.1-2.5c0.8-1,1.6-2,2.3-3.1l3.3,2.3C87.3,76.8,86.4,78,85.5,79z M91.3,70.3l-3.6-1.8c0.6-1.1,1.1-2.3,1.6-3.5l3.7,1.5    C92.5,67.8,91.9,69.1,91.3,70.3z M95,60.6l-3.9-1c0.3-1.2,0.6-2.5,0.8-3.7l3.9,0.7C95.6,57.9,95.3,59.2,95,60.6z M96.5,50.3    l-4-0.1c0-0.5,0-1.1,0-1.6c0-0.7,0-1.5-0.1-2.2l4-0.2c0,0.8,0.1,1.6,0.1,2.4C96.5,49.1,96.5,49.7,96.5,50.3z M91.8,40.6    c-0.2-1.3-0.5-2.5-0.8-3.7l3.9-1.1c0.4,1.3,0.7,2.7,0.9,4.1L91.8,40.6z M89.1,31.5c-0.5-1.2-1-2.3-1.6-3.5l3.5-1.9    c0.6,1.2,1.2,2.5,1.8,3.8L89.1,31.5z M84.5,23.1c-0.7-1-1.5-2.1-2.3-3l3.1-2.6c0.9,1.1,1.8,2.2,2.6,3.3L84.5,23.1z M78.1,16    c-0.9-0.9-1.9-1.7-2.9-2.5l2.4-3.2c1.1,0.8,2.2,1.7,3.2,2.7L78.1,16z M70.4,10.3c-1.1-0.6-2.2-1.2-3.4-1.8L68.7,5    c1.3,0.6,2.5,1.2,3.7,1.9L70.4,10.3z M61.7,6.5c-1.2-0.4-2.5-0.7-3.7-1l0.9-3.9c1.3,0.3,2.7,0.7,4,1.1L61.7,6.5z M52.3,4.7    c-1.3-0.1-2.5-0.2-3.8-0.2v-4c1.4,0,2.8,0.1,4.2,0.2L52.3,4.7z"/></g><g><path class="st1" d="M48.5,84.5c-19.9,0-36-16.1-36-36s16.1-36,36-36s36,16.1,36,36S68.4,84.5,48.5,84.5z"/></g><g><polygon class="st3" points="67.4,48.5 37.6,65.3 37.6,31.7   "/><path class="st0" d="M35.6,68.7V28.3l35.8,20.2L35.6,68.7z M39.6,35.1v26.7l23.7-13.4L39.6,35.1z"/></g></g></svg>