<?xml version="1.0" encoding="utf-8"?>
<!-- Generator: Adobe Illustrator 19.0.1, SVG Export Plug-In . SVG Version: 6.00 Build 0)  -->
<svg version="1.1" id="Layer_1" xmlns="http://www.w3.org/2000/svg" xmlns:xlink="http://www.w3.org/1999/xlink" x="0px" y="0px"
	 viewBox="-286.3 404.9 42.5 32" style="enable-background:new -286.3 404.9 42.5 32;" xml:space="preserve">
<style type="text/css">
	.st0{fill:#E02F2F;}
	.st1{fill:#FFFFFF;}
</style>
<g>
	<path class="st0" d="M-244.3,411.8c0,0-0.4-3.1-1.7-4.5c-1.6-1.8-3.4-1.8-4.2-1.9c-5.9-0.5-14.8-0.5-14.8-0.5h0c0,0-8.9,0-14.8,0.5
		c-0.8,0.1-2.6,0.1-4.2,1.9c-1.3,1.4-1.7,4.5-1.7,4.5s-0.4,3.7-0.4,7.3v3.4c0,3.7,0.4,7.3,0.4,7.3s0.4,3.1,1.7,4.5
		c1.6,1.8,3.7,1.7,4.7,1.9c3.4,0.3,14.4,0.5,14.4,0.5s8.9,0,14.8-0.5c0.8-0.1,2.6-0.1,4.2-1.9c1.3-1.4,1.7-4.5,1.7-4.5
		s0.4-3.7,0.4-7.3v-3.4C-243.9,415.5-244.3,411.8-244.3,411.8z"/>
	<polygon class="st1" points="-270.4,412.9 -270.4,428.8 -257.1,420.9 	"/>
</g>
</svg>
